<svg width="40" height="39" viewBox="0 0 40 39" fill="none" xmlns="http://www.w3.org/2000/svg">
<path d="M25.575 0.00378789C25.6982 0.00639935 25.8138 0.0248678 25.9509 0.0574988C25.9652 0.0609133 25.9791 0.0645048 25.9929 0.068241C26.0836 0.0949564 26.1783 0.120429 26.2839 0.137577C26.3429 0.147152 26.4077 0.154623 26.4773 0.162968C26.5387 0.17034 26.6047 0.178261 26.6736 0.189335C26.7376 0.200004 26.8789 0.232611 27.0652 0.288944C27.18 0.324017 27.3122 0.369433 27.4509 0.429569C27.5007 0.448644 27.5509 0.469314 27.6003 0.492069C27.8357 0.599609 28.1309 0.678197 28.4353 0.801639C28.5114 0.823881 28.5798 0.842001 28.6365 0.852421C28.6768 0.859779 28.7133 0.863655 28.7507 0.868046C28.7983 0.873683 28.8481 0.879768 28.9099 0.898319C28.9128 0.898863 28.9157 0.899659 28.9187 0.900272C28.9564 0.908173 28.9991 0.925634 29.0261 0.944218C29.0384 0.952773 29.0474 0.961544 29.0554 0.969608C29.0646 0.978803 29.0732 0.987324 29.0857 0.993046C29.0948 0.997164 29.1056 0.998894 29.1189 1.00086C29.1402 1.00403 29.168 1.00746 29.2068 1.0243C29.3518 1.08783 29.5336 1.16568 29.7224 1.26648C29.9318 1.37708 30.1511 1.5285 30.3093 1.69519C30.3573 1.74494 30.4085 1.80543 30.4568 1.87683C30.5468 2.0114 30.6471 2.17613 30.7439 2.34266C30.8366 2.50191 30.9263 2.66332 31.0037 2.79969C31.0795 2.9332 31.1648 3.06746 31.2459 3.19617C31.3428 3.3503 31.4341 3.49649 31.4988 3.62683L31.4998 3.62781C31.5143 3.6569 31.5233 3.6988 31.5339 3.74988C31.5414 3.7859 31.55 3.8275 31.5613 3.87293C31.6547 4.04635 31.7403 4.21664 31.825 4.38367C31.8295 4.38879 31.834 4.39411 31.8386 4.3993V4.40027C31.9447 4.51935 32.0869 4.67747 32.199 4.94519C32.2272 5.01261 32.2368 5.06017 32.2459 5.1034C32.2542 5.14501 32.2623 5.1844 32.2869 5.23133C32.3156 5.28588 32.3596 5.3429 32.408 5.40516C32.4758 5.49252 32.5524 5.5892 32.6082 5.70008C32.6119 5.7076 32.6166 5.71604 32.6209 5.72449C32.6271 5.73674 32.6342 5.75048 32.6414 5.76453C32.6812 5.84292 32.7336 5.94727 32.7771 6.05848C32.9951 6.4087 33.194 6.77757 33.3767 7.13855C33.6834 7.74533 33.9669 8.35645 34.2478 8.96863C34.3836 9.26556 34.4864 9.56416 34.533 9.79969C34.5776 10.0314 34.5654 10.1862 34.4929 10.2216C34.42 10.2564 34.2913 10.1697 34.1375 9.99109C33.982 9.80883 33.8119 9.54426 33.6609 9.25672C33.4141 8.78671 33.164 8.31672 32.9099 7.85633C32.8964 7.83389 32.8811 7.80878 32.8669 7.78504C32.7619 7.60865 32.6523 7.45119 32.5418 7.29773C32.5173 7.26417 32.4894 7.22613 32.4646 7.19226C32.305 6.96734 32.0712 6.57764 31.8718 6.26355C31.8286 6.19391 31.79 6.12913 31.7566 6.07312C31.7531 6.06731 31.7493 6.06134 31.7459 6.05555C31.701 5.9801 31.658 5.90888 31.6082 5.82508C31.4909 5.62596 31.3261 5.34812 31.0554 4.76355C30.9697 4.5983 30.8866 4.43519 30.8035 4.28113C30.769 4.21721 30.7343 4.15429 30.699 4.09363C30.3594 3.50335 30.0525 2.94675 29.6853 2.41297C29.5228 2.14405 29.0185 1.99212 28.4607 1.68933C28.1329 1.48657 27.7462 1.39117 27.2771 1.16785C27.0897 1.07226 26.8622 1.00566 26.6179 0.9491C26.5945 0.944365 26.5701 0.940144 26.5457 0.935429C26.3349 0.894716 26.0899 0.854405 25.8484 0.807499C25.6294 0.771261 25.3198 0.760686 25.115 0.744999C24.6291 0.711914 24.2937 0.694084 24.0183 0.677616C23.3716 0.661355 22.722 0.653303 22.072 0.647343C21.1634 0.630375 20.276 0.781617 19.3787 1.01453C19.3774 1.01485 19.376 1.01519 19.3748 1.01551C18.9042 1.13314 18.4317 1.29189 17.9314 1.40808C17.6765 1.46749 17.4164 1.51443 17.155 1.54676C16.9521 1.57199 16.7504 1.59686 16.5486 1.62195C16.2865 1.6617 16.0333 1.70173 15.8035 1.73816C15.477 1.78982 15.1872 1.83507 14.9509 1.87C14.7086 1.90594 14.4603 1.94232 14.2263 1.99598C13.9425 2.05873 13.6645 2.20464 13.4168 2.33777C13.3463 2.3756 13.2775 2.41231 13.2127 2.44617C13.1459 2.48389 13.0769 2.52234 13.0046 2.55848C12.7106 2.70671 12.4077 2.83116 12.1267 2.95691C12.1022 2.96399 12.0774 2.97114 12.0525 2.9784C11.902 3.02241 11.7434 3.08489 11.5671 3.18055C11.382 3.2816 11.164 3.43231 10.9031 3.62879C10.6962 3.7848 10.4608 3.97091 10.1892 4.19226C10.1679 4.20966 10.1457 4.2271 10.1238 4.24305C9.88796 4.40691 9.76413 4.43957 9.66285 4.47937C9.63328 4.49005 9.60447 4.50012 9.57691 4.51062C9.48238 4.54678 9.39334 4.60292 9.29078 4.6698C9.15795 4.75736 9.00071 4.85904 8.7937 4.96961C8.77387 4.98031 8.75378 4.99105 8.73511 5.00183C8.01472 5.3805 7.73705 5.52231 7.53492 5.68543C7.4742 5.73137 7.42023 5.77358 7.36597 5.81433C7.3586 5.81987 7.35103 5.8263 7.34351 5.83191C7.16262 5.9648 6.90806 6.14 6.71265 6.27918C6.55715 6.38747 6.28813 6.6458 6.08863 6.86707C6.08056 6.87611 6.07276 6.88548 6.06519 6.89441C6.00046 6.97051 5.91348 7.07256 5.82398 7.21277C5.73069 7.35752 5.63551 7.54474 5.54273 7.76062C5.36478 8.18051 5.23708 8.46461 5.12964 8.67566C5.10027 8.73442 5.07423 8.78821 5.05054 8.83973C5.02174 8.90242 4.99633 8.96189 4.97144 9.02137C4.89232 9.20934 4.80248 9.44829 4.71949 9.6991C4.62008 9.99867 4.5238 10.3158 4.4441 10.5614C4.42119 10.6215 4.39798 10.6818 4.37378 10.7421C4.19282 11.1913 3.95392 11.5461 3.82691 11.8993L3.69117 12.3212C3.65131 12.4565 3.61065 12.5894 3.5691 12.7147L3.57398 12.6864C3.53787 12.8302 3.50687 12.9819 3.47046 13.1083C3.40617 13.3366 3.32837 13.4716 3.24585 13.4716C3.22262 13.4714 3.2001 13.4599 3.17749 13.4393C3.18026 13.4475 3.18356 13.4556 3.18628 13.4637C3.31837 13.8622 3.59942 14.3239 3.75367 14.8241C3.81291 15.0161 3.86245 15.1973 3.91285 15.371C4.0833 15.1328 4.32446 14.7787 4.57691 14.4052C4.69434 14.2318 4.823 14.068 4.95288 13.9169C5.14042 13.6985 5.36833 13.4655 5.59058 13.247C5.60239 13.2353 5.61456 13.2227 5.62671 13.2108C5.97216 12.8601 6.36307 12.6063 6.54077 12.4735C6.85759 12.237 7.24584 12.0152 7.59058 11.829C7.89208 11.666 8.15855 11.5299 8.32398 11.4315C8.33958 11.4222 8.35437 11.4136 8.36792 11.4052C8.55597 11.2872 8.72789 11.2075 8.9773 11.0887C9.15001 11.006 9.36113 10.9052 9.6355 10.7509C9.95217 10.5719 10.1728 10.4403 10.3601 10.3261C10.6239 10.1636 10.8192 10.0362 11.0857 9.80945C11.165 9.74162 11.2456 9.67216 11.3269 9.60242C11.5496 9.41146 11.7818 9.23797 11.9871 9.10926C12.1153 9.02862 12.2625 8.93649 12.4197 8.84656C12.6278 8.72719 12.855 8.61229 13.073 8.52918C13.2525 8.4606 13.4089 8.42297 13.5476 8.39539C13.5907 8.38684 13.6324 8.37908 13.6726 8.37195C13.6984 8.36489 13.7248 8.358 13.7507 8.35144C13.866 8.32233 13.9839 8.29289 14.1003 8.26355C14.1222 8.2555 14.1476 8.24592 14.1707 8.23719C14.2934 8.1915 14.4449 8.13554 14.6345 8.07898C14.9351 7.9894 15.2032 7.93178 15.4861 7.87C15.7066 7.82182 15.9365 7.77073 16.196 7.70105C16.373 7.65354 16.5732 7.59472 16.7712 7.53601C17.066 7.44872 17.3565 7.36111 17.5613 7.31141C17.6378 7.29287 17.7062 7.28444 17.7732 7.27625H17.7742C17.7786 7.27571 17.7834 7.27485 17.7878 7.2743C17.8422 7.25835 17.8981 7.24243 17.9519 7.22644C18.376 7.09344 18.8457 6.94666 19.3308 6.90027C19.3779 6.89372 19.4267 6.88849 19.4744 6.88367C19.5385 6.8772 19.6025 6.87236 19.6648 6.86902C19.8268 6.85999 19.9776 6.86026 20.0886 6.86023C20.2507 6.85552 20.685 6.91938 21.0828 7.08777C21.2015 7.13547 21.3174 7.18787 21.4265 7.23816C21.5867 7.31426 21.706 7.39362 21.8064 7.45203C21.9136 7.5156 21.9988 7.58183 22.0896 7.64246C22.1746 7.69915 22.2649 7.75097 22.3728 7.78797C22.4267 7.8064 22.4862 7.82214 22.5515 7.83582C22.6079 7.84755 22.6714 7.8584 22.7351 7.86902C22.7954 7.87918 22.9274 7.91035 23.1062 7.93445C23.1368 7.93862 23.1695 7.94337 23.2039 7.94715C23.2979 7.95721 23.3964 7.96723 23.5007 7.9784C23.8842 8.00191 24.2678 8.03276 24.6472 8.06433C24.7266 8.06301 24.7962 8.05758 24.8513 8.04773C24.8911 8.04065 24.9257 8.0314 24.9607 8.02137C25.0081 8.00767 25.0577 7.99337 25.1238 7.98426C25.1753 7.97722 25.2356 7.97732 25.2752 7.98523C25.2932 7.98893 25.3076 7.99415 25.3201 7.99891C25.3343 8.00432 25.3473 8.00942 25.363 8.01062C25.3746 8.01141 25.388 8.00936 25.4031 8.00672C25.4273 8.00249 25.459 7.99707 25.5056 7.99988C25.616 8.00661 25.7358 8.01392 25.8582 8.02039C25.9348 8.02439 26.0119 8.02963 26.0886 8.03504C26.32 8.0512 26.5483 8.07337 26.7302 8.09168C26.9342 8.11185 27.2247 8.16368 27.5144 8.23523C27.7164 8.28473 27.9186 8.34389 28.0916 8.40027C28.1944 8.43368 28.3012 8.46814 28.407 8.50476C28.468 8.52567 28.5299 8.54559 28.5906 8.56531C28.7762 8.62559 28.9572 8.68308 29.1062 8.74695C29.136 8.75976 29.1711 8.78559 29.2136 8.81726C29.2438 8.83977 29.2797 8.86656 29.3201 8.89344C29.5157 8.96367 29.7133 9.03554 29.9109 9.11316C29.9183 9.11429 29.9267 9.11496 29.9343 9.11609L30.0808 9.14148C30.2393 9.17177 30.4367 9.22758 30.6746 9.38172C30.7558 9.43581 30.8023 9.48212 30.8445 9.52625C30.8847 9.56928 30.9215 9.60962 30.9832 9.66394C31.0301 9.70591 31.0872 9.75317 31.1492 9.82215C31.1679 9.84147 31.1881 9.86227 31.2087 9.88269C31.294 9.96707 31.3923 10.062 31.4714 10.1747C31.4767 10.1822 31.483 10.1906 31.489 10.1991C31.5466 10.2808 31.6335 10.4025 31.7097 10.5341C31.9924 10.8757 32.2771 11.2312 32.53 11.619C32.5934 11.7163 32.6551 11.8161 32.7136 11.9179C33.0232 12.4577 33.3319 12.9965 33.6541 13.5223C33.8381 13.8231 33.9975 14.1225 34.0925 14.3622C34.1468 14.4994 34.1751 14.6112 34.1785 14.6903C34.1871 14.6421 34.2067 14.5843 34.2556 14.5194L34.2459 14.5311C34.2041 14.6134 34.2539 14.4644 34.2527 14.3837C34.26 14.2889 34.2634 14.1843 34.2664 14.0809C34.2721 13.8722 34.2754 13.657 34.282 13.4423C34.2947 13.0118 34.3198 12.5756 34.3669 12.1425C34.37 12.1146 34.3735 12.0857 34.3767 12.0575C34.4293 11.3489 34.8138 10.6215 35.2039 10.1073C35.4681 9.75161 35.6737 9.29445 36.1736 8.94226C36.4392 8.7683 36.7468 8.66294 37.0857 8.67371C37.2091 8.67828 37.334 8.70063 37.4519 8.73914C37.8735 8.89416 38.4389 8.83929 39.0418 9.25379C39.221 9.4276 39.1876 9.46156 39.2234 9.52625C39.246 9.58672 39.2612 9.63862 39.2752 9.68933C39.3027 9.79061 39.3235 9.88994 39.3416 9.98523C39.3779 10.1787 39.4041 10.3673 39.4246 10.5575C39.4358 10.6624 39.4442 10.7663 39.4519 10.871C39.539 11.7187 39.5076 12.5806 39.3728 13.1962C39.3578 13.2664 39.3405 13.3373 39.323 13.4022C39.2065 13.8221 39.046 14.1017 38.9168 14.3329C38.8116 14.517 38.7175 14.6716 38.6414 14.8241C38.6009 14.9057 38.5475 15.017 38.5095 15.1366C38.5076 15.1426 38.5054 15.1492 38.5037 15.1552C38.3941 15.5331 38.2124 16.0776 38.1599 16.5897C38.1303 16.9638 38.1325 17.3792 38.1404 17.7772C38.1494 18.2245 38.1707 18.749 38.2019 19.2499C38.2186 19.5194 38.238 19.7831 38.2576 20.0243C38.2905 20.452 38.2765 20.8012 38.2781 21.0194C38.2778 21.5002 38.2412 22.0273 38.1668 22.537C38.1438 22.6873 38.1096 22.8301 38.073 22.9628C37.9321 23.4401 37.8123 23.8114 37.8025 24.078C37.7972 24.1551 37.7876 24.2233 37.7791 24.2811C37.7146 24.664 37.6106 24.9106 37.5252 25.3221C37.4655 25.6036 37.4105 25.9594 37.3865 26.4511C37.3822 26.5387 37.3783 26.6211 37.3757 26.703C37.3617 27.153 37.3467 27.4926 37.3347 27.788C37.3152 28.2791 37.3016 28.649 37.324 29.1991C37.347 29.6756 37.3615 30.262 37.4236 30.5673C37.4564 30.6606 37.4917 30.7554 37.5242 30.8485C37.6034 31.0711 37.6871 31.3478 37.7341 31.6337C37.7988 32.0136 37.8125 32.4113 37.7976 32.7684C37.785 33.063 37.7525 33.3036 37.7205 33.5145C37.7169 33.5376 37.7133 33.561 37.7097 33.5839C37.7034 33.624 37.6967 33.6636 37.6912 33.702C37.6727 33.9266 37.6604 34.1542 37.6394 34.3876C37.6384 34.4254 37.6373 34.4663 37.6355 34.5087C37.6175 34.719 37.6368 34.9958 37.4236 35.3544C37.3918 35.4029 37.3544 35.4498 37.3132 35.4921C37.1636 35.6636 36.873 35.9172 36.5437 35.9198C36.3671 35.9279 36.1889 35.9359 35.9978 35.9305C35.8061 35.9051 35.6181 35.9735 35.3113 35.7196C35.1646 35.4941 35.2006 35.4553 35.1628 35.3368C35.1401 35.2357 35.12 35.1333 35.1003 35.0302C35.0726 35.4631 35.0188 35.9315 34.7039 36.3514C34.5537 36.5339 34.3672 36.7804 33.99 36.8221C33.9627 36.8242 33.9344 36.8263 33.906 36.828C33.8312 36.8342 33.7511 36.8384 33.6687 36.8368C33.5079 36.8338 33.3267 36.8064 33.1609 36.7225C33.0901 36.6878 33.0177 36.6478 32.947 36.6034C32.9132 36.6975 32.9172 36.8711 32.5584 37.1054C32.4228 37.1667 32.3062 37.1888 32.1668 37.1981C32.0679 37.2021 31.9615 37.2021 31.821 37.1571C31.7018 37.1154 31.5625 37.0704 31.4158 37.0136C31.2535 36.9545 31.0834 36.8863 30.9089 36.7655C30.7405 36.6517 30.5359 36.4282 30.5076 36.1376C30.4736 35.8334 30.4639 35.5291 30.5056 35.2059C30.5126 35.1197 30.5222 35.037 30.5359 34.9579C30.5435 34.9106 30.5513 34.8671 30.5574 34.828C30.5683 34.7585 30.5761 34.6979 30.5847 34.6376C30.5964 34.5554 30.6105 34.4704 30.6394 34.3651C30.662 34.283 30.6956 34.1948 30.7224 34.1425C30.7349 34.1182 30.7464 34.1003 30.7566 34.0848C30.7682 34.0673 30.7785 34.0511 30.7859 34.0311C30.7912 34.0166 30.7941 34.0001 30.7966 33.9813C30.8005 33.9514 30.8056 33.9129 30.8162 33.8671C30.8293 33.8101 30.8332 33.7636 30.8308 33.7255C30.8201 33.5624 30.7892 33.405 30.7332 33.243C30.6648 33.0304 30.5178 32.7842 30.4373 32.4501C30.4166 32.3606 30.406 32.2797 30.3992 32.2069C30.3631 31.8071 30.4486 31.3394 30.5603 30.8925C30.6073 30.7056 30.659 30.5217 30.7107 30.3495C30.7449 30.2359 30.7793 30.1264 30.8103 30.0253C30.8437 29.9163 30.8756 29.8049 30.907 29.6942C30.885 29.7066 30.8532 29.7259 30.8386 29.7294C30.758 29.7619 30.6636 29.7879 30.5759 29.7958C30.5145 29.8014 30.4428 29.7983 30.3777 29.7938C30.2847 29.7874 30.202 29.7793 30.1638 29.7929C30.0964 29.8165 30.0175 29.8196 29.9509 29.8241C29.8875 29.8283 29.8345 29.8346 29.8103 29.8554C29.7816 29.8801 29.7528 29.8815 29.7127 29.8856C29.6851 29.8886 29.6509 29.8926 29.616 29.9081C29.5763 29.926 29.5508 29.9335 29.5291 29.9413C29.5201 29.9445 29.5116 29.9477 29.5046 29.952C29.4793 29.9737 29.4584 30.0011 29.4431 30.0438C29.4183 30.1127 29.3841 30.1823 29.3425 30.2274C29.3235 30.2481 29.3045 30.2745 29.2849 30.3016C29.259 30.3378 29.2308 30.376 29.198 30.4052C29.1707 30.4295 29.1398 30.4427 29.1121 30.454C29.1036 30.4574 29.0953 30.4604 29.0877 30.4637C29.0694 30.4858 29.0508 30.5082 29.032 30.5302C29.0308 30.5352 29.0293 30.5412 29.0281 30.5468C29.0218 30.5757 29.0134 30.6121 28.9919 30.6473C28.9577 30.7034 28.9097 30.7371 28.8582 30.7704C28.8178 30.7964 28.7745 30.8223 28.7302 30.8593C28.7001 30.8844 28.6668 30.9161 28.6316 30.9462C28.5797 30.9908 28.522 31.0317 28.4753 31.0468C28.458 31.0523 28.4396 31.0499 28.4216 31.0468L28.4177 31.0458C28.3128 31.0984 28.1965 31.1383 28.075 31.1591C28.0647 31.1626 28.0542 31.1666 28.0437 31.1698C28.0147 31.1788 27.9853 31.1865 27.9587 31.1942C27.9434 31.2 27.9289 31.2065 27.9177 31.2137C27.889 31.2319 27.8201 31.2423 27.7449 31.2528C27.6964 31.2597 27.6458 31.2667 27.6043 31.2762C27.5801 31.2818 27.5569 31.2716 27.5339 31.2606C27.512 31.2503 27.4892 31.2391 27.4646 31.2411L27.3845 31.2606C27.3712 31.2625 27.3425 31.256 27.3064 31.2479C27.284 31.2429 27.2575 31.2373 27.2302 31.2323C27.1584 31.2364 27.0851 31.2397 27.0134 31.2421C26.9979 31.2503 26.9845 31.2619 26.9734 31.2762C26.9654 31.2866 26.9581 31.2996 26.9509 31.3124C26.9411 31.3299 26.9302 31.3481 26.9168 31.3622C26.9064 31.3728 26.8951 31.3768 26.8875 31.372C26.8841 31.3695 26.8809 31.365 26.8787 31.3612C26.876 31.3568 26.873 31.3525 26.8699 31.3524C26.8677 31.3527 26.8649 31.3551 26.8621 31.3583C26.857 31.364 26.85 31.3722 26.8406 31.372C26.8056 31.3709 26.7665 31.3654 26.7273 31.3602C26.6843 31.3545 26.6424 31.349 26.6082 31.3485C26.5702 31.348 26.5165 31.3319 26.4636 31.3153C26.4274 31.3038 26.3889 31.2918 26.3572 31.285C26.3263 31.2785 26.2912 31.2808 26.2585 31.2831C26.2195 31.2859 26.1803 31.2876 26.1502 31.2733C26.1441 31.2701 26.1372 31.2567 26.1296 31.2401C26.1243 31.2284 26.1175 31.2146 26.1101 31.202C26.0697 31.1962 26.0304 31.189 25.99 31.1815C25.9883 31.1829 25.9859 31.1849 25.9841 31.1864L25.9148 31.2333C25.8886 31.2435 25.86 31.2444 25.8308 31.2225C25.8163 31.2114 25.8081 31.1937 25.8015 31.1786C25.7951 31.1639 25.7892 31.1502 25.7781 31.1454C25.7652 31.1401 25.7475 31.1452 25.7283 31.1503C25.7013 31.1575 25.6704 31.1652 25.6462 31.1464C25.6448 31.1452 25.643 31.1437 25.6414 31.1425C25.6235 31.1288 25.5969 31.1079 25.575 31.0741C25.4909 31.046 25.4078 31.0143 25.3259 30.9794C25.1896 30.9211 25.0559 30.8529 24.9285 30.7792C24.8666 30.7431 24.8203 30.68 24.8025 30.6044C24.7848 30.5287 24.7959 30.4468 24.8318 30.3749C24.868 30.3027 24.9263 30.2438 24.9919 30.2079C25.0577 30.1723 25.1258 30.1625 25.1843 30.1776C25.2799 30.2027 25.3763 30.2234 25.4724 30.2411C25.4776 30.2411 25.4829 30.241 25.488 30.2411C25.5274 30.242 25.5676 30.2307 25.6072 30.2186C25.6163 30.2159 25.6256 30.2126 25.6345 30.2098C25.703 30.1896 25.8114 30.2335 25.8738 30.2557C25.8748 30.2561 25.8766 30.2564 25.8777 30.2567C25.8922 30.2619 25.907 30.2654 25.9236 30.2694C25.9633 30.2789 26.0175 30.2926 26.1296 30.3358C26.1641 30.3405 26.1977 30.3455 26.2322 30.3505C26.6029 30.4033 26.9895 30.456 27.3835 30.5048H27.5574C27.6101 30.5058 27.6602 30.5081 27.699 30.5155C27.7967 30.5344 27.8644 30.5508 27.9197 30.5653C27.9326 30.5666 27.9458 30.568 27.9587 30.5692C28.1531 30.6031 28.3829 30.5106 28.5828 30.3251C28.648 30.2657 28.7102 30.1983 28.7693 30.1259C28.8238 30.059 28.8766 29.9873 28.9285 29.913C28.9528 29.8658 28.9747 29.8186 28.9959 29.7743C29.0237 29.7157 29.0503 29.6606 29.0798 29.6161C29.0829 29.6118 29.0865 29.6075 29.0896 29.6034C29.2168 29.4343 29.4105 29.3648 29.5271 29.3348C29.5466 29.3297 29.5663 29.3249 29.5828 29.3212C29.672 29.2875 29.7581 29.2617 29.8406 29.2391C29.8466 29.2411 29.8529 29.2438 29.8591 29.246C29.9382 29.274 30.0232 29.2589 30.1502 29.2362C30.2052 29.2262 30.268 29.2146 30.3396 29.203C30.3854 29.1956 30.4123 29.2067 30.4343 29.2157C30.4407 29.2183 30.447 29.2208 30.4529 29.2225C30.4732 29.2284 30.4896 29.213 30.5076 29.1942C30.5312 29.1696 30.5574 29.1406 30.6043 29.1444C30.6123 29.1451 30.6203 29.1452 30.6277 29.1454L30.574 29.1727C30.7154 29.1332 30.7426 29.0622 30.7625 29.0096C30.7684 28.9936 30.7741 28.9788 30.782 28.9667C30.8071 28.9279 30.8636 28.8993 30.9119 28.8827C30.9508 28.8694 30.9945 28.8058 31.0183 28.7518C31.0277 28.7314 31.0471 28.7111 31.0691 28.6864C31.0916 28.661 31.1171 28.6304 31.1365 28.5927C31.1853 28.4966 31.2068 28.4442 31.2244 28.4022C31.2293 28.3902 31.2337 28.3783 31.238 28.3671C31.2519 28.3313 31.2706 28.2875 31.2888 28.2421C31.3107 28.1877 31.3324 28.1294 31.3455 28.0819C31.363 28.0532 31.3808 28.0234 31.3992 27.993C31.4777 27.6792 31.5987 27.3756 31.7185 27.1083C31.7215 27.0972 31.7242 27.0845 31.7273 27.0731L31.8015 26.8036C31.8714 26.5669 31.9835 26.3019 32.1355 26.0096C32.1914 25.9012 32.2336 25.8369 32.2703 25.7792C32.306 25.7225 32.3381 25.6706 32.366 25.5917C32.3875 25.5303 32.4038 25.4592 32.4158 25.3846C32.4236 25.3403 32.4325 25.2941 32.4412 25.2489C32.4807 25.0461 32.5256 24.8424 32.5837 24.6473C32.5877 24.634 32.5922 24.62 32.5964 24.6054C32.6381 24.4637 32.6917 24.2527 32.7459 24.038C32.7859 23.7429 32.8072 23.4387 32.8162 23.1337C32.8271 22.7595 32.8387 22.3862 32.8474 22.0136C32.8664 21.1728 32.8778 20.3297 32.8386 19.5009C32.8235 19.197 32.8083 18.8958 32.7918 18.5927C32.7616 18.0366 32.7579 17.4975 32.7869 17.1005C32.8155 16.7039 32.8763 16.4692 32.9597 16.4696C33.0376 16.4629 33.1327 16.6747 33.2253 17.0653C33.3174 17.4535 33.3961 17.9898 33.4441 18.5468C33.4702 18.8505 33.4956 19.1525 33.5203 19.4569C33.5695 20.0765 33.588 20.6909 33.5984 21.3036C33.6001 21.3518 33.6018 21.4011 33.6033 21.4491C33.6142 21.8069 33.6332 22.1395 33.6511 22.4706C33.6552 22.5469 33.66 22.6233 33.6638 22.6991C33.6702 22.8262 33.6734 22.9813 33.6746 23.1473C33.6883 23.7661 33.5668 24.6218 33.4168 25.1063C33.4137 25.1174 33.41 25.1287 33.407 25.1395C33.3664 25.2847 33.328 25.4172 33.2937 25.5575C33.2915 25.5666 33.289 25.5766 33.2869 25.5858C33.2044 25.9719 32.9783 26.4539 32.6404 27.1561C32.5948 27.259 32.5448 27.3653 32.4949 27.4725C32.3697 27.7577 32.2719 28.0111 32.2127 28.2821C32.2052 28.3154 32.1986 28.3498 32.1921 28.3837C32.0419 29.1648 31.7905 29.8897 31.5916 30.5936C31.4327 31.1635 31.2771 31.8326 31.3503 32.2401C31.4143 32.5165 31.7546 33.1039 31.7625 33.66C31.7546 34.4297 31.391 34.7715 31.3093 35.1679C31.244 35.4069 31.2383 35.7485 31.2673 36.0565C31.2561 36.0583 31.3061 36.1469 31.4705 36.2274C31.6283 36.3087 31.8292 36.3725 32.0515 36.4462C32.0502 36.4524 32.1494 36.4461 32.2009 36.4354C32.2088 36.4195 32.2197 36.3979 32.2283 36.3729C32.3859 35.8477 32.3439 34.9354 32.2937 34.3348C32.2903 34.2986 32.2882 34.2734 32.2849 34.2411L32.28 34.1923C32.2818 34.1982 32.2867 34.2156 32.3015 34.2567C32.2987 34.2218 32.2948 34.1836 32.2927 34.1366C32.2927 34.1249 32.2921 34.1326 32.2937 34.0956C32.2959 34.0802 32.2912 34.0713 32.3103 34.0048C32.332 33.9746 32.31 33.886 32.5261 33.7753C32.6407 33.7264 32.7856 33.7605 32.8494 33.8046C32.9178 33.8481 32.9426 33.8844 32.9607 33.9091C33.0453 34.0643 33.0101 34.0359 33.0203 34.0536C33.0239 34.0718 33.0259 34.0901 33.0271 34.0975C33.0299 34.1154 33.0329 34.1385 33.0349 34.1532C33.0367 34.1669 33.0383 34.1796 33.0398 34.1913C33.0404 34.1789 33.0385 34.1727 33.0427 34.163C33.0459 34.13 33.0446 34.1321 33.0447 34.1298C33.0442 34.1443 33.0464 34.2096 33.0486 34.2567C33.0649 34.3865 33.0781 34.5115 33.0886 34.6268C33.1018 34.7724 33.1014 34.9133 33.0984 35.0546C33.1243 35.4307 33.1513 35.7384 33.1863 35.9618C33.1862 35.9668 33.1869 35.9744 33.1931 35.9862C33.2169 36.03 33.3232 36.1098 33.4529 36.1796C33.548 36.2375 33.735 36.2525 33.9519 36.2382C33.9959 36.2476 34.1399 36.1497 34.2556 35.9989C34.5456 35.6556 34.545 35.0551 34.6043 34.4481C34.6181 34.3075 34.6453 34.1754 34.6765 34.0497C34.7039 33.9438 34.7578 33.738 34.7576 33.7665C34.7581 33.7096 34.7587 33.6615 34.7615 33.6054C34.7632 33.5761 34.7642 33.5518 34.7712 33.5018C34.7733 33.4888 34.7757 33.4742 34.78 33.4569C34.7839 33.4426 34.7898 33.4182 34.8084 33.3827C34.8478 33.3569 34.7954 33.254 35.1013 33.2274C35.2214 33.2451 35.2684 33.3052 35.2937 33.3329C35.313 33.3571 35.313 33.3591 35.3201 33.37C35.3308 33.3877 35.3365 33.4014 35.3416 33.413C35.3524 33.4388 35.3544 33.4457 35.3582 33.4569C35.3986 33.6034 35.4062 33.6804 35.4246 33.785C35.4565 33.9834 35.4842 34.1764 35.5134 34.37C35.5426 34.563 35.5718 34.755 35.6052 34.9442C35.6218 35.0378 35.6401 35.1313 35.6599 35.2206C35.6649 35.2628 35.6917 35.3403 35.7019 35.3768C35.7542 35.3887 35.8906 35.4177 35.9978 35.413C36.1609 35.4159 36.3363 35.406 36.5125 35.3964C36.5883 35.392 36.6508 35.3715 36.7185 35.328C36.7872 35.2842 36.8573 35.214 36.947 35.1239C37.2123 34.8485 37.1783 34.1317 37.2429 33.5419C37.2542 33.4184 37.2637 33.2981 37.2712 33.1766C37.3172 32.4098 37.298 31.6619 37.0154 30.9716C36.9862 30.8969 36.9559 30.8202 36.9265 30.7411C36.8122 30.2578 36.8341 29.9621 36.8103 29.6161C36.7867 29.0465 36.7784 28.5415 36.7781 28.1249C36.7782 27.6618 36.7869 27.1703 36.7996 26.6923C36.8137 26.1219 36.8739 25.5624 36.9773 25.0975C37.0081 24.9569 37.0418 24.8256 37.075 24.7059C37.138 24.4567 37.2141 24.2214 37.2273 24.0292C37.2622 23.5566 37.4218 23.1328 37.5115 22.7538C37.5245 22.7144 37.5376 22.6745 37.5496 22.6346C37.5668 22.5769 37.582 22.5168 37.5945 22.4559C37.6858 21.9535 37.7577 21.2839 37.7166 20.3427C37.7116 20.2589 37.7056 20.1723 37.696 20.0858C37.6502 19.6722 37.6 19.1982 37.5613 18.6581C37.5314 18.233 37.5387 18.0118 37.5447 17.8319C37.5465 17.7791 37.5482 17.7287 37.5496 17.6786C37.5545 17.5062 37.5391 17.3243 37.5271 17.1083C37.5183 16.9435 37.5111 16.7568 37.5242 16.5389C37.5347 16.3751 37.5653 16.2049 37.613 16.0243C37.7284 15.5985 37.8469 15.2634 37.9363 14.9804C38.2108 14.2814 38.4231 13.9888 38.5173 13.6923C38.5614 13.5726 38.5963 13.464 38.6277 13.3544C38.6396 13.3125 38.6514 13.2681 38.6628 13.2225C38.7538 12.8711 38.8257 12.3983 38.8591 12.0243C38.8953 11.6889 38.8665 11.004 38.7781 10.4999C38.7457 10.3144 38.7093 10.0388 38.6296 9.78504C38.6294 9.77353 38.6168 9.75434 38.6082 9.73914C38.4506 9.63487 38.1901 9.56784 37.8904 9.51648C37.6655 9.47658 37.448 9.43916 37.2449 9.37683C36.9664 9.29712 36.715 9.40802 36.5564 9.51648C36.4736 9.57504 36.405 9.64309 36.3416 9.7157C36.2729 9.79467 36.2102 9.87972 36.1482 9.96961C36.0425 10.1229 35.922 10.3153 35.782 10.5184C35.6668 10.6858 35.5496 10.8548 35.4519 11.0223C35.2314 11.3885 35.1285 11.7824 35.0935 12.1464C35.0866 12.2132 35.0812 12.2772 35.0759 12.3387C35.0294 12.7303 35.0006 13.127 34.9812 13.5272C34.9712 13.7277 34.9635 13.9297 34.9529 14.1376C34.9474 14.2417 34.9412 14.3479 34.9294 14.4608C34.9093 14.5559 34.9297 14.6171 34.8728 14.7587C34.8742 14.7615 34.8764 14.7647 34.8777 14.7675C34.9115 14.8386 34.9509 14.9244 34.9812 15.0214C35.0446 15.2109 35.0616 15.48 34.9636 15.704C34.8911 15.877 34.7769 16.0049 34.6638 16.1014C34.4162 16.3172 34.1702 16.6859 33.9734 16.9276C33.7272 17.2405 33.5344 17.4199 33.448 17.3661C33.412 17.3066 33.4367 17.0956 33.5867 16.7069C33.716 16.4003 33.8617 16.0171 34.238 15.6259C34.2973 15.568 34.3376 15.5088 34.3572 15.4569C34.3818 15.3906 34.3814 15.3244 34.3484 15.2255C34.3318 15.1765 34.3077 15.123 34.2761 15.0604C34.2601 15.0282 34.242 14.9945 34.2205 14.9462C34.2099 14.9212 34.1968 14.8932 34.1843 14.8436C34.1825 14.8266 34.1764 14.7963 34.1746 14.7557C34.1687 14.7805 34.1583 14.7987 34.1423 14.8104C34.0767 14.8572 33.9296 14.7881 33.7332 14.6151C33.5371 14.4423 33.3087 14.1761 33.1052 13.8778C32.773 13.391 32.4565 12.8985 32.1433 12.4061C32.1263 12.3813 32.1087 12.3555 32.0916 12.33C32.0858 12.3214 32.0798 12.3121 32.074 12.3036C31.9611 12.1395 31.8359 11.9961 31.7058 11.8563C31.6746 11.8228 31.6421 11.7892 31.6101 11.7557C31.3712 11.4993 30.9244 10.9642 30.6697 10.6503C30.6653 10.6448 30.6604 10.6391 30.656 10.6337C30.5963 10.5597 30.5386 10.4891 30.4714 10.4052C30.4655 10.3978 30.4589 10.3893 30.4529 10.3817C30.429 10.338 30.1741 10.1539 29.5877 9.90808C29.406 9.83881 29.2187 9.77074 29.03 9.70301C28.7193 9.59156 28.4023 9.47979 28.0857 9.35926C27.3971 9.09927 26.6083 8.99942 25.8181 8.95398C24.8959 8.90221 24.0286 8.76481 23.1502 8.69324C23.0004 8.68009 22.8494 8.65987 22.698 8.63074C22.6675 8.62556 22.6375 8.62022 22.6062 8.61414C22.0352 8.54493 21.3368 8.06336 21.0925 7.90906C21.0722 7.8982 21.052 7.88797 21.033 7.87781C20.579 7.63085 20.2875 7.54917 20.0173 7.50476C19.9021 7.48997 19.7842 7.48182 19.6638 7.47937C19.151 7.46671 18.6495 7.59031 18.0984 7.74793C17.0871 8.01379 16.0751 8.25799 15.0632 8.50476C14.6621 8.60249 14.2613 8.69991 13.863 8.79871C13.7453 8.82804 13.6282 8.86411 13.5125 8.90516C13.0684 9.06309 12.6434 9.29564 12.2419 9.56433C12.0298 9.71443 11.834 9.86966 11.657 10.0204C11.6412 10.0338 11.6255 10.0474 11.6101 10.0604C11.3323 10.2952 11.0741 10.4996 10.8552 10.6571C10.3288 11.0429 9.66653 11.4024 9.1814 11.6376C9.10231 11.6767 9.02725 11.7131 8.95874 11.747C8.83676 11.812 8.71551 11.8775 8.59546 11.9432C8.34425 12.0809 8.09389 12.2211 7.85035 12.3651C7.82553 12.3756 7.79762 12.388 7.77124 12.3993C7.44315 12.5446 7.0475 12.7621 6.52027 13.1776C6.36025 13.3069 6.20411 13.4528 6.0271 13.6473C5.9497 13.731 5.86896 13.8189 5.78589 13.911C5.60829 14.1084 5.50927 14.2014 5.42847 14.2782C5.40477 14.3009 5.38262 14.3225 5.36109 14.3446C5.28718 14.4206 5.22778 14.5157 5.16382 14.6288C5.14203 14.6674 5.11989 14.7089 5.09644 14.7518C5.02623 14.8788 4.93766 15.0245 4.80933 15.1864C4.50651 15.5677 4.30303 15.8391 4.15113 16.0477C4.22439 16.2157 4.30384 16.3766 4.38843 16.5262C4.52298 16.7655 4.70001 16.9792 4.84839 17.1503C5.09681 17.4355 5.24375 17.5693 5.23999 17.6434C5.21988 17.7335 4.92687 17.7113 4.56812 17.4882C4.34765 17.3519 4.09767 17.1545 3.87964 16.8583C3.82547 16.7844 3.77393 16.706 3.72437 16.6249C3.71169 16.64 3.70129 16.6569 3.68824 16.6718C3.53367 16.8509 3.27045 17.0671 3.07495 17.2137C3.0659 17.2189 3.05916 17.223 3.05249 17.2294C2.97794 17.2428 3.07793 17.6771 3.19117 18.0126C3.21582 18.0984 3.24259 18.2091 3.2566 18.3514C3.2629 18.4188 3.26806 18.496 3.26636 18.5819C3.26477 18.7505 3.22333 18.9629 3.12476 19.1483C3.07363 19.2474 3.00492 19.3452 2.92261 19.4315C2.69538 19.6677 2.41846 19.7715 2.40308 19.8075C2.34339 19.8661 2.31934 20.0417 2.32398 20.1805C2.32525 20.2466 2.33055 20.3125 2.33765 20.3788C2.35948 20.5881 2.41261 20.8639 2.47144 21.1542C2.51166 21.356 2.55454 21.5654 2.58081 21.7772C2.59645 21.8998 2.61839 22.0141 2.64331 22.1141C2.71434 22.4946 2.86204 22.8717 3.01734 23.2831C3.09634 23.4874 3.2358 23.7455 3.36402 23.9784C3.46206 24.1552 3.55335 24.3327 3.62964 24.4979L3.62378 24.4891C3.68305 24.6087 3.7372 24.7198 3.78101 24.8202C3.88311 25.0519 3.91961 25.2148 3.85523 25.2675C3.79213 25.3187 3.63746 25.2649 3.42652 25.0917C3.33572 25.0164 3.23965 24.9191 3.14527 24.8075C3.02458 24.6547 2.9063 24.4868 2.79761 24.3065C2.70088 24.1428 2.60811 23.9877 2.51734 23.8143C2.53824 24.4371 2.54843 25.0513 2.57007 25.6503C2.58091 25.8705 2.67767 26.1283 2.76148 26.4481C2.77376 26.4935 2.78555 26.5409 2.79663 26.5897C2.81326 26.663 2.82762 26.7403 2.83863 26.8202C2.87532 27.052 2.99868 27.4473 3.0066 27.8261C3.02752 28.3365 3.03874 28.8409 3.03492 29.2147C3.02656 30.0638 2.99732 30.6383 2.96949 31.1112C2.96716 31.1675 2.96521 31.2241 2.96265 31.2811C2.94508 31.6658 2.88005 32.0703 2.69507 32.4481C2.52045 32.8293 2.17327 33.1292 1.98999 33.3407C1.78159 33.5851 1.75277 34.0279 1.65503 34.5165C1.50357 35.3237 1.59655 36.3134 1.81324 37.1112C1.86949 37.2706 1.95658 37.3599 2.13648 37.4511C2.30975 37.5431 2.57586 37.6175 2.80249 37.8427C2.82929 37.8698 2.85965 37.8903 2.89917 37.9071C3.10038 37.9942 3.46264 37.9235 3.83179 37.8846C3.869 37.8805 3.91469 37.8804 3.96265 37.8837C4.02591 37.7277 4.07718 37.565 4.1189 37.3983C4.09829 37.3411 4.08361 37.2822 4.07593 37.2235C4.02651 36.7775 4.03797 36.4264 4.03687 35.9276C4.03794 35.4417 4.07015 34.9381 4.0896 34.5165C4.09049 34.4984 4.09201 34.4802 4.09742 34.453C4.10208 34.4465 4.09368 34.3954 4.17554 34.3075C4.20907 34.2645 4.34889 34.2085 4.44117 34.2479C4.52742 34.2803 4.55027 34.3192 4.5691 34.3407C4.62196 34.4191 4.61487 34.4292 4.62574 34.454C4.63934 34.4951 4.64787 34.5276 4.65503 34.5575C4.66984 34.6208 4.67953 34.6756 4.68921 34.7333C4.72842 34.9717 4.75932 35.2388 4.7771 35.5194C4.80059 35.8897 4.79853 36.2814 4.75952 36.6386C4.73496 36.8641 4.69212 37.0576 4.6482 37.2304C4.75286 37.4263 5.1378 37.6499 5.50562 37.8788C5.81013 38.081 6.15342 38.264 6.40503 38.329C6.41931 38.3043 6.43772 38.2719 6.4441 38.2382C6.54519 37.7992 6.53077 37.2608 6.49683 36.7323C6.48213 36.6934 6.46625 36.6548 6.45191 36.6161C6.20206 35.9172 5.98683 35.3314 5.9314 34.8651C5.93083 34.8342 5.92914 34.8151 5.93726 34.7626C5.9515 34.7244 5.93757 34.6264 6.11109 34.5194C6.29721 34.442 6.38088 34.5151 6.42066 34.5292C6.46731 34.5555 6.48244 34.5691 6.50757 34.5897C6.83299 34.9128 6.96971 35.2658 7.01831 35.6776C7.0403 35.9154 7.05749 36.1546 7.07007 36.3807C7.07405 36.4494 7.07589 36.5173 7.07886 36.5839C7.10088 36.6366 7.12128 36.691 7.14429 36.745C7.16918 36.803 7.19879 36.8545 7.23413 36.8973C7.29962 36.9764 7.37365 37.0189 7.45679 37.0585C7.60304 37.1267 7.6976 37.1599 7.78589 37.1825C7.82771 37.1929 7.86828 37.2004 7.90894 37.205C7.96834 37.2115 8.03062 37.2097 8.09449 37.1991C8.15494 37.1876 8.2003 37.1585 8.2439 37.1014C8.28601 37.0459 8.32437 36.9612 8.3562 36.8475C8.39602 36.7053 8.41814 36.5163 8.42749 36.288C8.44214 35.58 8.28567 35.057 8.14136 34.7421C7.99994 34.4501 7.89488 34.2319 7.80835 34.038C7.75184 33.9111 7.70296 33.7942 7.65992 33.6718C7.6388 33.6116 7.61754 33.5464 7.59742 33.4784C7.4988 33.1319 7.3341 32.7244 7.17163 32.4042C7.1437 32.3479 7.10812 32.2816 7.06617 32.2089C6.87556 31.8819 6.60571 31.4064 6.41285 31.0136C6.40189 30.9915 6.39101 30.9682 6.37964 30.9442C6.29674 30.7687 6.19857 30.5364 6.11011 30.2567C6.02481 29.9878 5.95105 29.6743 5.90503 29.3368C5.89356 29.2424 5.88966 29.1765 5.88355 29.0985C5.81571 28.0657 5.80053 27.5276 5.78101 27.0887C5.77598 26.9643 5.77186 26.8483 5.76734 26.7313C5.75525 26.4213 5.74379 26.0464 5.73316 25.6581C5.73133 25.5947 5.72784 25.5325 5.72242 25.4706C5.68562 24.9683 5.48978 24.5948 5.2312 24.2362C5.20176 24.189 5.17123 24.1379 5.14038 24.0819C4.95938 23.7386 4.58782 23.4297 4.30738 22.8983C4.02445 22.3204 3.9236 21.6933 3.89136 21.0985C3.87866 20.8599 3.88168 20.6277 3.89624 20.4081C3.8963 20.3849 3.90835 20.3228 3.91577 20.3007C4.03635 20.0171 4.14198 19.7562 4.24878 19.5321C4.3092 19.4079 4.36921 19.2938 4.45191 19.1981L4.44702 19.2089C4.55703 19.0901 4.63519 18.9964 4.68824 19.0165C4.73711 19.035 4.77157 19.1427 4.72632 19.3495C4.70728 19.4291 4.69379 19.535 4.67456 19.6649C4.643 19.8832 4.58872 20.1534 4.50757 20.4393C4.51696 20.6395 4.52769 20.8472 4.5437 21.0565C4.58553 21.6025 4.69068 22.1322 4.92749 22.5887C5.1018 22.9251 5.48677 23.2484 5.77027 23.7294C5.80679 23.7928 5.85479 23.864 5.90503 23.9403C6.24228 24.4018 6.44796 25.064 6.44507 25.6473C6.46279 26.4929 6.48178 27.3379 6.5066 28.1805C6.51838 28.5413 6.52739 28.9417 6.55249 29.2567C6.61063 29.7497 6.75512 30.2177 6.96265 30.6864C6.98923 30.7472 7.01681 30.8086 7.04468 30.869C7.0851 30.9567 7.12685 31.044 7.16968 31.1307C7.30836 31.3918 7.45795 31.6476 7.60816 31.8886C7.87829 32.3169 8.0939 32.769 8.2107 33.1405C8.22761 33.1926 8.24342 33.2433 8.25757 33.2929C8.36168 33.6534 8.45836 33.926 8.54859 34.1639C8.59341 34.2812 8.63751 34.3903 8.68335 34.496C8.71557 34.5698 8.74232 34.6388 8.76734 34.7079C8.8047 34.8113 8.84965 34.9501 8.89331 35.118C8.9933 35.575 9.18205 36.2121 8.95581 37.0468C8.88186 37.3016 8.62716 37.735 8.17261 37.7821C8.02756 37.8004 7.87744 37.799 7.73413 37.7782C7.55602 37.7533 7.3759 37.6936 7.22144 37.6239C7.179 37.6082 7.13596 37.5859 7.09253 37.5604C7.09157 37.6415 7.09311 37.7146 7.09156 37.7782C7.08752 37.9581 7.07432 38.1265 7.02906 38.3192C7.00453 38.4162 6.9763 38.5174 6.90601 38.6415C6.85367 38.7514 6.63981 38.9731 6.37671 38.9198H6.37378C5.99769 38.8425 5.66369 38.6632 5.21949 38.3807C5.20952 38.3742 5.19896 38.3677 5.18921 38.3612C4.92985 38.1939 4.66943 38.05 4.46167 37.868C4.43412 37.9487 4.40498 38.0292 4.37183 38.1083C4.35144 38.1547 4.34309 38.1853 4.30347 38.2596C4.29142 38.277 4.28996 38.2991 4.22339 38.3495C4.14 38.4108 4.02406 38.379 4.0105 38.372C3.96883 38.3561 3.97322 38.3593 3.96558 38.3583C3.95187 38.3577 3.92173 38.3576 3.87964 38.3661C3.72436 38.3919 3.53763 38.4381 3.29077 38.4608C3.02967 38.4834 2.68015 38.4662 2.43042 38.2128C2.33287 38.1083 2.15795 38.0375 1.93921 37.9305C1.71303 37.8285 1.42648 37.5916 1.33277 37.2821C1.28334 37.1368 1.25286 37.0005 1.22144 36.8554C1.15989 36.5647 1.10654 36.2355 1.07202 35.9052C1.02008 35.4159 1.0157 34.9213 1.07691 34.5682C1.08681 34.5096 1.09954 34.4542 1.11402 34.4022C1.12959 34.3492 1.14443 34.2952 1.15894 34.2411L1.15992 34.2401C1.16166 34.2336 1.16306 34.2262 1.1648 34.2196C1.22547 33.8473 1.24543 33.393 1.55152 32.9901C1.8612 32.6348 2.09851 32.4194 2.21753 32.0761C2.23647 32.02 2.25373 31.9597 2.26734 31.9012C2.3195 31.6791 2.33294 31.4479 2.32788 31.2606C2.32647 31.1978 2.32453 31.1404 2.32202 31.0897C2.3109 30.8578 2.31464 30.2768 2.30152 29.6659C2.2934 29.2646 2.27839 28.8514 2.25855 28.5136C2.24708 28.3164 2.25039 28.1285 2.25367 27.9345C2.25411 27.9074 2.25512 27.8795 2.25562 27.8534C2.25924 27.7197 2.24793 27.5794 2.21363 27.4227C2.19368 27.3302 2.16489 27.2295 2.13355 27.1063C2.11966 27.0508 2.10494 26.9899 2.09351 26.9198C2.08579 26.8762 2.07622 26.8308 2.06519 26.7841C2.04671 26.6933 1.99243 26.5004 1.90601 26.1815C1.87208 26.0473 1.83771 25.8868 1.82691 25.7079C1.82254 25.6317 1.82022 25.5604 1.81812 25.4852C1.78768 24.885 1.76865 24.2991 1.73413 23.7118C1.71924 23.5898 1.70213 23.4842 1.68238 23.4012C1.66819 23.3416 1.65288 23.2909 1.63648 23.2391C1.61421 23.1691 1.59082 23.0968 1.5691 22.997C1.55209 22.9187 1.5399 22.8252 1.5398 22.7626C1.53977 22.7335 1.54253 22.7108 1.54468 22.6903C1.54715 22.6668 1.54887 22.6451 1.54663 22.62C1.54495 22.6019 1.54065 22.5831 1.53492 22.5604C1.52566 22.5238 1.51393 22.4765 1.5066 22.4032C1.48324 22.17 1.45523 21.9091 1.41773 21.6581C1.41076 21.6117 1.40349 21.5654 1.39722 21.5194C1.34853 21.1585 1.31787 20.8177 1.28492 20.5507C1.24868 20.2511 1.21036 19.8297 1.1521 19.413C1.15126 19.4069 1.15003 19.4005 1.14917 19.3944C1.10585 19.0905 1.07505 18.7888 1.04468 18.5399C1.01421 18.2899 0.9717 18.0424 0.912845 17.8182C0.883334 17.7051 0.84977 17.5971 0.814212 17.494C0.758077 17.3301 0.709244 17.1727 0.671634 17.0282C0.65851 16.9777 0.651123 16.9122 0.643314 16.83C0.637847 16.772 0.631948 16.7048 0.622806 16.6298C0.533726 16.3152 0.451562 15.9971 0.379642 15.6757C0.375477 15.6649 0.371232 15.6536 0.366947 15.6425V15.6415C0.300599 15.468 0.218286 15.2489 0.160892 14.9569C0.135452 14.8278 0.11222 14.6824 0.0954623 14.5184C0.082201 14.3882 0.08441 14.303 0.0866733 14.2264C0.088978 14.1515 0.0909517 14.0836 0.0808139 13.9862C0.0693846 13.8753 0.0464261 13.7438 0.027103 13.5956C0.00115563 13.3872 -0.0227173 13.142 0.0388217 12.868C0.0430577 12.8498 0.0478857 12.8295 0.0534701 12.8085C0.0883664 12.6816 0.146531 12.4986 0.296634 12.3173C0.364212 12.2392 0.444315 12.1596 0.544681 12.0897C0.679805 11.979 0.887701 11.8687 1.13062 11.8798C1.57318 11.9009 2.06358 12.0047 2.46656 12.3231C2.62448 12.448 2.75899 12.6006 2.86402 12.7616C2.92202 12.8504 2.96968 12.9421 3.01343 13.0331C2.98983 12.9121 2.97167 12.7714 2.97632 12.6102C2.97707 12.6053 2.97917 12.5923 2.98023 12.5878C2.99581 12.4472 3.02274 12.2983 3.06031 12.1493C3.09945 11.9928 3.14615 11.8349 3.18824 11.6893C3.18897 11.6871 3.19042 11.6807 3.19117 11.6786C3.33988 11.2239 3.57367 10.8486 3.70191 10.4852C3.72998 10.4081 3.75716 10.3295 3.78394 10.2509C3.99058 9.63871 4.18323 8.96769 4.5232 8.34558C4.59337 8.21552 4.65972 8.08379 4.72535 7.9491C4.96967 7.47038 5.16009 6.88908 5.64917 6.41297C5.65788 6.40463 5.66687 6.39584 5.67554 6.38758C5.71899 6.34618 5.76327 6.30451 5.80738 6.26355C6.15117 5.91041 6.52629 5.57787 6.81714 5.36707C6.86879 5.32926 6.91872 5.29511 6.96656 5.26355C7.14798 5.14482 7.29472 5.07423 7.42261 5.01258C7.53494 4.95898 7.63296 4.91366 7.72827 4.86316C7.77934 4.8361 7.84891 4.7992 7.93042 4.75476C8.0615 4.68265 8.23224 4.58945 8.3816 4.48621C8.69129 4.27074 9.0582 4.10543 9.37378 3.95691C9.52415 3.88588 9.69069 3.80591 9.80347 3.72644C9.88716 3.66432 9.97252 3.60221 10.0564 3.54187C10.4044 3.29062 10.74 3.06872 10.906 2.94617C11.0207 2.86084 11.1471 2.77454 11.2869 2.69422C11.4981 2.57282 11.7238 2.47606 11.9265 2.39539C12.2472 2.26949 12.5126 2.16569 12.6541 2.08289C12.686 2.06452 12.7174 2.04713 12.7488 2.03016C12.8742 1.96188 13.0031 1.89547 13.1892 1.79969C13.3498 1.71958 13.5497 1.60838 13.8591 1.50086C13.9399 1.47355 14.0181 1.45251 14.0925 1.43641C14.3303 1.38557 14.5171 1.36551 14.6775 1.34949C14.9697 1.32174 15.1851 1.30727 15.5046 1.24988C15.8576 1.18683 16.2288 1.1297 16.5212 1.10144C16.6549 1.08856 16.807 1.06965 16.9656 1.04969C17.0068 1.0445 17.0493 1.03945 17.0925 1.03406C17.2575 1.01354 17.4243 0.987355 17.5798 0.962772C17.7393 0.937594 17.8735 0.921824 17.9929 0.906132C18.0303 0.901194 18.0666 0.895894 18.1013 0.890507C18.2276 0.856772 18.3541 0.820502 18.4812 0.783085C18.5011 0.774615 18.5228 0.765183 18.5447 0.755741C18.6544 0.708418 18.7896 0.649129 18.9636 0.590702C19.06 0.558388 19.1542 0.531097 19.2468 0.506718C19.4168 0.461993 19.5811 0.425795 19.7527 0.391483C19.9584 0.350504 20.1741 0.311368 20.4216 0.263554C20.5904 0.230956 20.7834 0.193674 20.9763 0.163944C21.2625 0.119217 21.5487 0.0918131 21.7468 0.090702C21.8212 0.0901769 21.8857 0.0984878 21.949 0.107304L21.9627 0.109257C21.9976 0.108106 22.0328 0.107158 22.0681 0.106327C22.5049 0.0958742 22.9416 0.0856279 23.3787 0.0770301C23.4191 0.0744214 23.4607 0.0717106 23.5017 0.0692176C23.7017 0.057 23.8965 0.0462832 24.0232 0.0301551C24.1609 0.0127293 24.5074 0.0036658 24.8748 0.000858207C25.1146 -0.000949019 25.3649 0.000130805 25.575 0.00378789ZM6.7898 24.2548C6.96546 24.2886 7.14179 24.3248 7.31714 24.3651C7.3264 24.3663 7.33614 24.3677 7.34546 24.369C7.41582 24.379 7.48613 24.3775 7.55445 24.3759C7.57041 24.3756 7.5865 24.3759 7.6023 24.3759C7.72429 24.3748 7.93128 24.4633 8.04468 24.5155C8.04664 24.5164 8.04859 24.5176 8.05054 24.5184C8.07783 24.5308 8.10272 24.5402 8.13355 24.5526C8.20472 24.5818 8.305 24.6215 8.49683 24.7313C8.55527 24.7558 8.61427 24.7822 8.67163 24.8085C8.82434 24.8784 8.9722 24.9532 9.11011 25.0223C9.58667 25.2542 10.0398 25.5909 10.408 25.9432C10.4146 25.9485 10.4217 25.9535 10.4285 25.9589C10.5606 26.0642 10.7174 26.1918 10.8044 26.2821C10.8099 26.2877 10.8148 26.2942 10.8201 26.2997C10.937 26.4189 11.0082 26.5095 11.0652 26.5848C11.3187 26.8659 11.5253 27.1631 11.7273 27.452C11.832 27.6018 11.9289 27.7546 12.0212 27.9081C12.1084 28.053 12.1917 28.1986 12.2732 28.3436C12.3482 28.4771 12.4225 28.611 12.4959 28.7421C12.5448 28.815 12.5928 28.8835 12.6375 28.9452C12.7001 29.0319 12.7563 29.1062 12.7976 29.1669C12.823 29.2042 12.8477 29.2422 12.8718 29.2782C12.9415 29.3832 13.0191 29.4875 13.0886 29.5663C13.1037 29.5834 13.1188 29.5996 13.1326 29.6141C13.2186 29.6858 13.3114 29.7513 13.4099 29.8104C13.4144 29.8173 13.4199 29.8238 13.4246 29.8309C13.4839 29.921 13.5914 29.9869 13.7712 30.0751C13.8497 30.1134 13.9428 30.1565 14.0535 30.2069C14.1246 30.2393 14.1557 30.2705 14.1814 30.2958C14.1889 30.3032 14.1964 30.31 14.2039 30.3163C14.2296 30.3378 14.2654 30.3398 14.3074 30.3417C14.3117 30.3419 14.3166 30.3415 14.321 30.3417C14.3611 30.3396 14.4108 30.3386 14.4724 30.371C14.6932 30.4812 14.823 30.4471 14.908 30.4257C14.9332 30.419 14.9566 30.4136 14.9802 30.411C15.0556 30.4027 15.1624 30.4242 15.2429 30.4481C15.3069 30.4674 15.4396 30.4568 15.5388 30.4384C15.5765 30.4315 15.6268 30.4313 15.6863 30.4315C15.7479 30.4317 15.8199 30.432 15.8962 30.4227C16.0896 30.3988 16.1931 30.3843 16.2752 30.3729C16.2984 30.3697 16.3201 30.3663 16.3416 30.3632C16.4103 30.353 16.4969 30.3423 16.5828 30.3309C16.6854 30.3174 16.7901 30.3026 16.8679 30.286C16.928 30.2838 16.9888 30.2803 17.0486 30.2772C17.0914 30.255 17.1362 30.2297 17.1804 30.1981C17.1969 30.1864 17.2142 30.1733 17.2312 30.16C17.259 30.1384 17.2909 30.1181 17.325 30.1005C17.2418 30.0652 17.1616 30.0293 17.1023 29.9989C17.0998 29.9977 17.0971 29.9963 17.0945 29.995C17.0591 29.9771 17.0275 29.9626 16.9871 29.9432C16.9431 29.922 16.8916 29.8964 16.8181 29.8544C16.7814 29.8332 16.7389 29.8086 16.6873 29.7733C16.6284 29.7258 16.5854 29.7244 16.4392 29.5429C16.4296 29.528 16.4201 29.5127 16.4109 29.497C16.3455 29.4016 16.294 29.2995 16.2556 29.1971C16.0789 28.6367 16.1054 28.2232 16.3494 27.6493C16.5774 27.2611 16.9495 27.1825 17.1775 27.1327C17.4231 27.0857 17.6357 27.0704 17.8318 27.0409C17.8411 27.0389 17.8507 27.0372 17.8601 27.035C17.8778 27.031 17.8958 27.0267 17.9138 27.0223C18.2132 26.9727 18.3863 26.9763 18.5496 26.9794C18.7597 26.9893 18.9009 27.0022 19.0183 27.0136C19.6823 27.0285 20.3448 27.0513 21.0056 27.0614C21.2132 27.0646 21.4208 27.0667 21.6277 27.0673C21.8057 27.0678 21.9814 27.0682 22.1599 27.0673C22.1739 27.0672 22.1881 27.0663 22.2019 27.0663C22.3129 27.0588 22.4218 27.0507 22.5203 27.0438C22.6604 27.0341 22.7862 27.0271 22.8894 27.0282C23.1382 27.0304 23.4217 27.0666 23.6316 27.1024C23.6665 27.1083 23.6989 27.1146 23.7293 27.12C23.8979 27.1365 24.067 27.1577 24.2371 27.1874C24.2475 27.1929 24.2584 27.1991 24.2693 27.205C24.4032 27.2785 24.5795 27.3183 24.8484 27.4091C24.857 27.412 24.866 27.4148 24.8748 27.4179C24.9877 27.4571 25.1159 27.5077 25.2585 27.5809C25.3583 27.6326 25.4007 27.6765 25.4343 27.7118C25.444 27.7221 25.4532 27.7319 25.4627 27.7411C25.4955 27.773 25.5413 27.7886 25.5955 27.8085C25.6653 27.8343 25.7503 27.8682 25.8289 27.9569C25.8905 28.027 25.943 28.0877 25.989 28.1395C26.1904 28.3992 26.1745 28.5329 26.2166 28.6346C26.2277 28.6745 26.237 28.7107 26.241 28.747C26.2544 28.8657 26.2209 29.021 26.1834 29.1288C26.1749 29.1536 26.1681 29.1863 26.1619 29.2225C26.145 29.356 26.0565 29.5396 25.9548 29.6405C25.903 29.6968 25.8215 29.7511 25.7312 29.7938C25.6371 29.8389 25.5342 29.8741 25.4304 29.912C25.1708 30.0034 25.047 30.0348 24.946 30.0673C24.9176 30.0761 24.8909 30.0843 24.865 30.0927C24.7829 30.1191 24.6831 30.1496 24.5886 30.1845C24.5808 30.1873 24.5729 30.1913 24.5652 30.1942C24.5493 30.2002 24.5006 30.2075 24.4832 30.2098C24.3651 30.2254 24.2492 30.2451 24.1628 30.2665C23.9732 30.2852 23.791 30.3143 23.615 30.3632C23.6045 30.3674 23.5715 30.3752 23.5603 30.3778C23.4792 30.3886 23.4078 30.3917 23.3386 30.3934C23.2075 30.3961 23.0898 30.3685 22.9959 30.3241C23.0361 30.5044 23.0445 30.639 23.0603 30.7606C23.0733 30.9021 23.0662 31.0006 23.0603 31.0897C23.056 31.1471 23.052 31.2039 23.0544 31.2548C23.0554 31.2747 23.0575 31.3003 23.0593 31.3309C23.0601 31.3432 23.0605 31.3563 23.0613 31.37C23.073 31.5618 23.0896 31.8877 23.072 32.1845C23.0643 32.3162 23.0475 32.4695 23.031 32.6151C23.0074 32.8234 22.9849 33.0172 22.991 33.1151C23.0016 33.2871 22.9894 33.4843 22.9783 33.6581C22.9677 33.8237 22.958 33.9691 22.9705 34.0516C22.9839 34.1409 22.9784 34.218 22.9685 34.3241C22.9675 34.3354 22.9667 34.3476 22.9656 34.3593C22.9573 34.4453 22.9474 34.5522 22.9412 34.6971C22.9338 34.8647 22.9187 34.9832 22.9041 35.0868C22.8781 35.2355 22.8821 35.3304 22.8269 35.5585C22.813 35.6053 22.792 35.6521 22.7722 35.6893C22.7046 35.8244 22.6252 35.9548 22.5457 36.0516C22.5013 36.1057 22.4519 36.1695 22.3982 36.2343C22.3273 36.32 22.2473 36.4082 22.1628 36.4784C22.0932 36.5363 22.0246 36.5733 21.9636 36.6034C21.9447 36.6127 21.9266 36.6222 21.9089 36.6307C21.851 36.6741 21.7896 36.7145 21.7253 36.7518C21.7163 36.76 21.7063 36.7693 21.696 36.7782C21.6443 36.8228 21.5754 36.8765 21.4753 36.9198C21.354 36.9719 21.229 36.9915 21.1052 36.9891C21.0731 36.9882 21.0408 36.9873 21.0085 36.9852C20.9002 36.9783 20.788 36.9667 20.6589 36.9579C20.5706 36.9518 20.4692 36.9457 20.3679 36.9335C20.2176 36.9157 20.0664 36.8836 19.9578 36.8319L19.9548 36.8309C19.9174 36.8125 19.8877 36.7878 19.8601 36.7626L19.8543 36.7567C19.6673 36.6677 19.4955 36.514 19.3826 36.3397C19.3471 36.287 19.3111 36.2331 19.2761 36.1786L19.073 35.913C19.0238 35.858 18.9313 35.7008 18.8494 35.5214C18.7955 35.4044 18.7463 35.2782 18.7078 35.1727C18.6851 35.1111 18.6807 35.0472 18.6785 34.9823C18.6765 34.9217 18.6761 34.859 18.6648 34.7929C18.6591 34.7597 18.6514 34.7238 18.6433 34.6854C18.6362 34.6515 18.6293 34.6153 18.6248 34.577C18.6207 34.5416 18.6221 34.4612 18.6326 34.3602C18.639 34.2974 18.6493 34.2268 18.6619 34.1532C18.6647 34.1183 18.6683 34.0837 18.6726 34.0487C18.6904 33.9004 18.7134 33.7549 18.739 33.6122C18.7378 33.5743 18.7327 33.5404 18.7234 33.5126C18.7167 33.4928 18.7074 33.4751 18.698 33.4569C18.6851 33.4321 18.6725 33.4059 18.6648 33.3729C18.6588 33.3472 18.6609 33.3189 18.6697 33.3016C18.6738 33.2938 18.6793 33.2881 18.6843 33.2831C18.6901 33.2774 18.6953 33.2717 18.697 33.2645C18.6982 33.2592 18.6962 33.2526 18.6941 33.245C18.6908 33.2328 18.6865 33.2166 18.6912 33.1952C18.709 33.1151 18.7328 33.0257 18.7556 32.9393C18.781 32.8434 18.8053 32.7505 18.8191 32.6766C18.8247 32.647 18.8329 32.613 18.8425 32.577C18.8526 32.5482 18.8716 32.4673 18.8865 32.3983C18.9032 32.3199 18.9192 32.2332 18.9285 32.163C18.9331 32.1269 18.9354 32.0901 18.9363 32.0536V31.8153C18.9376 31.7745 18.9407 31.7358 18.948 31.7011C18.951 31.6868 18.9652 31.6692 18.9822 31.6473C18.9942 31.6316 19.0075 31.6145 19.0203 31.5946C19.0259 31.5031 19.0318 31.4118 19.0378 31.3202C19.0363 31.3169 19.0345 31.3129 19.033 31.3095C18.9974 31.2321 18.9488 31.1259 18.988 30.9833C18.9981 30.947 19.0153 30.9236 19.03 30.9032C19.0442 30.8833 19.0565 30.866 19.0603 30.8397C19.0646 30.8095 19.0587 30.7724 19.0515 30.7323C19.0414 30.6773 19.0292 30.6149 19.0447 30.5536C19.0457 30.5495 19.0474 30.5445 19.0486 30.5399C19.0572 30.5061 19.07 30.4593 19.0886 30.41C19.0768 30.4145 19.0653 30.421 19.0525 30.4247C18.9416 30.4567 18.8022 30.4552 18.6668 30.4227C18.4459 30.3696 18.2253 30.3123 18.0066 30.2499C17.9949 30.2476 17.983 30.2455 17.9714 30.243C17.9154 30.231 17.8603 30.2242 17.8054 30.2186C17.8186 30.2609 17.8225 30.3085 17.8162 30.3593C17.8035 30.4572 17.756 30.5583 17.6687 30.6464C17.6483 30.6667 17.6263 30.6877 17.6043 30.7079C17.5132 30.7916 17.4097 30.8722 17.2898 30.9384C17.268 30.9473 17.2069 30.9685 17.1834 30.9696C17.092 30.985 16.9999 30.9995 16.908 31.0116C16.6328 31.0477 16.3569 31.0705 16.0808 31.077C15.8877 31.0815 15.694 31.0798 15.4998 31.0721C15.4799 31.0714 15.4601 31.0701 15.4402 31.0692C15.2762 31.0853 15.1097 31.0951 14.9919 31.0927C14.8955 31.0907 14.8241 31.0734 14.7644 31.0575C14.7232 31.0465 14.6861 31.0363 14.6482 31.0321C14.6273 31.0298 14.599 31.027 14.5652 31.0233C14.4573 31.0099 14.2966 30.9943 14.0994 30.9149C14.0539 30.8955 14.0084 30.8741 13.9646 30.8514C13.8833 30.8094 13.7907 30.7522 13.7039 30.6952C13.5795 30.6141 13.4661 30.5319 13.4011 30.5048C13.2867 30.4575 13.1676 30.3759 13.0671 30.2968C12.971 30.2216 12.8917 30.1491 12.8357 30.12C12.7687 30.0852 12.7247 30.0372 12.6648 29.9637C12.6234 29.9125 12.5736 29.8484 12.5076 29.7616C12.4608 29.6998 12.428 29.6453 12.4021 29.5966C12.3866 29.567 12.3737 29.539 12.3621 29.5136C12.3195 29.4201 12.2915 29.3523 12.2214 29.2665C12.144 29.1715 12.0732 29.0677 12.033 28.9794C12.0146 28.9391 11.9891 28.8949 11.9636 28.8495C11.9297 28.789 11.8943 28.7252 11.8689 28.6639C11.848 28.6134 11.84 28.5665 11.8328 28.5253C11.8305 28.5124 11.8284 28.5 11.8259 28.4882C11.8044 28.4509 11.7818 28.4137 11.7595 28.3768L11.6892 28.3182C11.6706 28.3018 11.6505 28.2829 11.6316 28.2606C11.5718 28.1904 11.5363 28.1189 11.4978 28.0438C11.4678 27.9854 11.4359 27.9245 11.3884 27.8632C11.3651 27.833 11.3366 27.8007 11.3074 27.7694C11.2956 27.7567 11.284 27.7438 11.2722 27.7313C11.209 27.664 11.1458 27.5994 11.1121 27.5468C11.0995 27.5271 11.0951 27.5049 11.0906 27.4833L11.0896 27.4784C10.9894 27.365 10.8867 27.2562 10.781 27.1542C10.7705 27.1466 10.7602 27.1383 10.7498 27.1307C10.6986 27.0938 10.6483 27.0599 10.6091 27.0448C10.5666 27.0283 10.4845 26.9637 10.3953 26.9022C10.3798 26.8915 10.3641 26.8804 10.3484 26.87C10.2993 26.8366 10.2512 26.8043 10.2087 26.7782C10.1752 26.7576 10.1536 26.7258 10.1316 26.6932C10.1112 26.6629 10.0899 26.6317 10.0584 26.6083C10.0426 26.5966 10.0238 26.586 10.0037 26.5751C9.98607 26.5655 9.9672 26.5557 9.94898 26.5438C9.93193 26.5327 9.9005 26.4995 9.86109 26.4579C9.83672 26.4322 9.80893 26.403 9.77906 26.3739C9.68942 26.3107 9.59985 26.2502 9.50953 26.1932C9.48602 26.1877 9.46321 26.1865 9.44214 26.1903C9.42722 26.1931 9.41222 26.1984 9.39722 26.204C9.37665 26.2116 9.35498 26.2193 9.33179 26.2216C9.31358 26.2233 9.29653 26.218 9.2898 26.2079C9.28688 26.2032 9.28586 26.1973 9.28492 26.1923C9.28383 26.1864 9.28283 26.1809 9.27906 26.1786C9.27629 26.1771 9.27169 26.1777 9.26636 26.1786C9.25766 26.18 9.2462 26.1821 9.23511 26.1757C9.19323 26.1503 9.14636 26.1185 9.10035 26.0887C9.04897 26.0555 8.9984 26.0246 8.95484 26.0038C8.90679 25.9808 8.84395 25.9349 8.77906 25.8905C8.75926 25.8769 8.73873 25.8635 8.71851 25.8505C8.69076 25.8331 8.66408 25.8165 8.63941 25.8026C8.59561 25.7781 8.54552 25.7615 8.49878 25.746C8.4426 25.7273 8.38933 25.7094 8.35132 25.6805C8.34369 25.6746 8.33754 25.6579 8.33081 25.6376C8.32612 25.6233 8.32083 25.6069 8.31324 25.5907C8.25929 25.5659 8.2046 25.5408 8.15113 25.5165C8.14854 25.5172 8.14498 25.5177 8.14234 25.5184C8.08186 25.5356 7.99997 25.5596 7.92652 25.495C7.90748 25.4784 7.89993 25.459 7.89234 25.4413C7.88508 25.4239 7.87807 25.4079 7.86304 25.3993C7.84599 25.3896 7.82107 25.3894 7.7937 25.3886C7.75676 25.3879 7.71254 25.386 7.68042 25.3602C7.6783 25.3585 7.67596 25.3562 7.67359 25.3544C7.64905 25.3354 7.61365 25.3082 7.58179 25.2675C7.46356 25.2177 7.3444 25.1682 7.22437 25.12C7.02428 25.0396 6.81923 24.961 6.61499 24.8856C6.51532 24.8487 6.42634 24.7858 6.3689 24.7079C6.31226 24.6301 6.28902 24.5429 6.30933 24.4647C6.32952 24.3867 6.39245 24.3224 6.4812 24.2831C6.57083 24.244 6.68219 24.2342 6.7898 24.2548ZM21.3123 27.537C21.2622 27.5517 21.2002 27.5699 21.1257 27.579C21.0058 27.5933 20.9023 27.5842 20.7918 27.5751C20.7071 27.568 20.6154 27.561 20.5134 27.5643C20.4428 27.5666 20.3647 27.5738 20.2849 27.5809C20.1694 27.5914 20.0535 27.6016 19.9724 27.5966C19.9422 27.5946 19.9158 27.5848 19.8904 27.5751L19.8855 27.5731C19.6897 27.5831 19.4935 27.5946 19.2986 27.6073C19.2824 27.6102 19.2647 27.6133 19.2478 27.6161C19.1657 27.63 19.0846 27.6439 19.0339 27.662C18.976 27.6817 18.8361 27.6964 18.6863 27.7128C18.5886 27.7235 18.4871 27.7348 18.407 27.7489C18.3596 27.7572 18.314 27.7489 18.2683 27.7411C18.2248 27.7339 18.1825 27.7267 18.1375 27.7333C18.117 27.7364 18.0924 27.7432 18.0789 27.7499C18.0749 27.7519 18.0719 27.7544 18.0769 27.7548C18.0593 27.7613 18.041 27.7677 18.0222 27.7733C17.9948 27.7815 17.9313 27.7883 17.8533 27.7948C17.8051 27.7989 17.7511 27.8035 17.696 27.8085C17.5538 27.8387 17.4177 27.8665 17.3044 27.9022C17.283 27.9172 17.2666 27.9351 17.2566 27.954C17.2496 27.9675 17.2447 27.9827 17.241 27.9979C17.2361 28.0185 17.2318 28.0399 17.2253 28.0585C17.2199 28.0731 17.2126 28.0813 17.2048 28.08C17.2012 28.0793 17.1976 28.0766 17.1941 28.0741C17.1903 28.0714 17.1864 28.0694 17.1843 28.0702C17.1829 28.0711 17.1822 28.0748 17.1824 28.079C17.1827 28.0856 17.1835 28.094 17.1804 28.0966C17.1743 28.1013 17.1716 28.1035 17.1707 28.1034V28.0956C17.18 28.0685 17.1495 28.1444 17.1443 28.1786C17.1333 28.2304 17.1058 28.3077 17.0857 28.3876C17.0715 28.4434 17.0605 28.5001 17.0574 28.5477C17.0543 28.5944 17.0636 28.642 17.075 28.6845C17.0886 28.7356 17.1047 28.7794 17.1052 28.8182C17.1052 28.8261 17.0957 28.8383 17.0847 28.8544C17.0769 28.8658 17.0682 28.8797 17.0613 28.8944C17.0788 28.941 17.0997 28.9834 17.1238 29.0204C17.126 29.0207 17.1284 29.0211 17.1306 29.0214C17.1364 29.0221 17.1431 29.0227 17.1492 29.0233C17.1041 28.9178 17.1802 28.9464 17.239 29.0048C17.2575 29.0239 17.2651 29.045 17.2732 29.0643C17.2812 29.0835 17.2876 29.1007 17.3054 29.1122C17.3263 29.1254 17.3538 29.1286 17.3865 29.1337C17.4306 29.14 17.4816 29.147 17.5222 29.1786C17.525 29.1808 17.5278 29.184 17.531 29.1864C17.5602 29.209 17.6057 29.2429 17.6453 29.2889C17.7928 29.3568 17.942 29.4223 18.0935 29.4872C18.3459 29.5951 18.6018 29.6995 18.8591 29.7977C18.9668 29.8389 19.0637 29.8995 19.1365 29.9686C19.1415 29.9045 19.1471 29.8403 19.1521 29.7762C19.1777 29.4495 19.2038 29.1229 19.2263 28.7958C19.2374 28.6375 19.2765 28.4837 19.3377 28.372C19.3988 28.2592 19.4768 28.1964 19.5574 28.1962C19.6381 28.1962 19.7168 28.2591 19.7771 28.3739C19.8373 28.4873 19.8739 28.644 19.8806 28.8046C19.8913 29.0676 19.8999 29.3308 19.906 29.5936C19.9073 29.6074 19.9088 29.6219 19.9099 29.6356C19.9184 29.7381 19.9381 29.834 19.9578 29.9296C19.9623 29.9516 19.9671 29.9739 19.9714 29.996C20.0047 30.1642 19.9771 30.4854 19.9607 30.662C19.9604 30.6651 19.96 30.6686 19.9597 30.6718C19.9559 30.7138 19.9536 30.7528 19.9509 30.7997C19.9444 30.9106 19.936 31.0616 19.8943 31.3729C19.8901 31.4645 19.8853 31.5558 19.8796 31.6473C19.8535 32.0145 19.8403 32.3345 19.7615 32.7684C19.6468 33.2634 19.5014 33.72 19.4138 34.1639C19.3915 34.2743 19.3798 34.3863 19.3777 34.4999C19.3782 34.5101 19.378 34.5207 19.3787 34.5311C19.3892 34.7343 19.4534 34.984 19.4968 35.1464C19.5503 35.3532 19.6038 35.4969 19.6482 35.6151C19.7138 35.7561 19.7886 35.8966 19.8689 36.038C19.9387 36.1643 20.0289 36.2496 20.1697 36.3153C20.4194 36.4253 20.7676 36.4711 21.0896 36.4677C21.1291 36.4674 21.169 36.4639 21.2087 36.4569C21.3869 36.4263 21.5673 36.3233 21.7293 36.1835C21.8787 36.0548 22.015 35.8971 22.1384 35.7274C22.2047 35.6242 22.2625 35.5208 22.3132 35.4237C22.3162 35.4181 22.3191 35.4118 22.322 35.4061C22.3445 35.3588 22.3418 35.262 22.3464 35.1522C22.3536 34.8861 22.3704 34.5576 22.3855 34.3173V34.3153C22.3878 34.2767 22.3894 34.2397 22.3914 34.2059C22.389 34.0145 22.3869 33.8228 22.3835 33.6317C22.3869 33.6193 22.3898 33.6064 22.3933 33.5936C22.4381 33.4311 22.4404 33.2301 22.4412 32.9149C22.4414 32.7777 22.4416 32.6185 22.4441 32.4315C22.4457 32.3111 22.4619 32.2488 22.4753 32.1981C22.4793 32.1833 22.4831 32.1692 22.4861 32.1552C22.4962 32.1066 22.4847 32.0551 22.4705 31.995C22.452 31.9171 22.4295 31.8239 22.446 31.7001C22.4652 31.5566 22.4707 31.442 22.4685 31.3485C22.4646 31.1839 22.4369 31.0824 22.4138 31.0018C22.4031 30.9632 22.3936 30.9283 22.3875 30.8944C22.3673 30.7804 22.3724 30.6171 22.3806 30.4979C22.3863 30.3988 22.3522 30.2363 22.2849 30.1845C22.2521 30.1447 22.1962 30.0468 22.1589 29.9471C22.156 29.9405 22.1503 29.92 22.1482 29.913C22.1479 29.9119 22.1475 29.9102 22.1472 29.9091C22.125 29.8169 22.1004 29.7229 22.0593 29.621C21.9554 29.3674 21.8836 29.2465 21.8269 29.1532C21.8104 29.1267 21.7941 29.1023 21.7781 29.079C21.7276 29.0056 21.6628 28.9199 21.5945 28.8554C21.5126 28.7763 21.4314 28.7375 21.3806 28.7323C21.3713 28.7285 21.3617 28.7253 21.3523 28.7225C21.0766 28.6544 20.7916 28.5984 20.4871 28.5184C20.3178 28.4717 20.1486 28.3926 20.0222 28.245C19.9613 28.1735 19.9153 28.0694 19.9275 27.9921C19.939 27.9144 19.9876 27.89 20.0271 27.8905C20.1123 27.9113 20.1827 27.8941 20.2585 27.8671C20.3432 27.8496 20.4821 27.8536 20.6326 27.8807C20.9051 27.93 21.2014 27.9649 21.4998 28.0175C21.5519 28.0272 21.603 28.041 21.6521 28.0585C22.2207 28.2923 22.4235 28.7619 22.5925 29.1581C22.6661 29.3461 22.7252 29.5459 22.7683 29.7304C22.7902 29.7863 22.8018 29.8068 22.8582 29.9071C22.8604 29.9114 22.8617 29.9163 22.864 29.9208C22.8864 29.8972 22.9123 29.8735 22.9441 29.8534C23.0166 29.8075 23.1083 29.7753 23.2019 29.7557L23.4187 29.7196C23.6386 29.6368 23.8672 29.5809 24.0916 29.5429C24.1869 29.5266 24.2822 29.5144 24.3767 29.5038C24.6134 29.4252 24.8462 29.3762 25.0584 29.328C25.2761 29.2819 25.4981 29.2079 25.5418 29.1581C25.5463 29.154 25.5501 29.1501 25.5525 29.1473C25.5522 29.1364 25.5474 29.1311 25.5447 29.1161C25.5541 28.9894 25.558 28.8786 25.5584 28.8007C25.559 28.7073 25.5667 28.6507 25.5701 28.6112C25.5724 28.5849 25.5722 28.5659 25.5681 28.5575C25.566 28.5533 25.5622 28.5504 25.5632 28.5546C25.5638 28.5563 25.5658 28.5592 25.5681 28.5624C25.4686 28.4698 25.3021 28.3448 25.1404 28.2313C25.0617 28.1751 24.9679 28.1084 24.8728 28.0497C24.8102 28.0109 24.7465 27.9752 24.6892 27.9471C24.6202 27.9137 24.5605 27.8895 24.5193 27.8807C24.3851 27.8519 24.2358 27.8043 24.1003 27.7675C23.9712 27.7321 23.8556 27.7063 23.7869 27.7098C23.7055 27.7143 23.6385 27.6981 23.5378 27.6766C23.4675 27.6618 23.3822 27.6448 23.2634 27.6317C23.1261 27.6167 23.0285 27.5991 22.9451 27.5848C22.8286 27.565 22.7395 27.5514 22.6062 27.5663C22.4588 27.5829 22.304 27.5943 22.1834 27.5868C22.1749 27.5863 22.1659 27.5852 22.157 27.5848C22.1072 27.5829 22.0519 27.5835 21.9959 27.5839C21.909 27.5844 21.8144 27.5849 21.7312 27.577C21.661 27.5705 21.603 27.5542 21.5525 27.5399C21.5367 27.5355 21.5216 27.5319 21.5066 27.5282C21.4506 27.5283 21.3945 27.5278 21.3396 27.5282C21.3309 27.5307 21.3218 27.5341 21.3123 27.537ZM27.5378 16.5477C27.5461 16.5477 27.5548 16.5477 27.5632 16.5477C27.7324 16.5467 27.9448 16.5631 28.075 16.6005C28.2399 16.647 28.3494 16.695 28.4392 16.7382C28.5246 16.7712 28.6056 16.8029 28.7087 16.8651C29.1302 17.1167 29.4035 17.5941 29.5212 17.993C29.5489 18.0749 29.5741 18.1539 29.6003 18.2196C29.6502 18.3319 29.6526 18.494 29.6033 18.6093C29.4974 18.8475 29.3434 18.9364 29.2127 19.0282C29.138 19.0849 29.0674 19.1337 29.0017 19.1766C28.9094 19.2368 28.826 19.2856 28.7556 19.3192C28.5859 19.4001 28.3867 19.4573 28.241 19.4979C28.2174 19.5045 28.1941 19.5107 28.1736 19.5165C28.1237 19.5367 28.0729 19.557 28.0242 19.577C27.9567 19.6042 27.8878 19.6291 27.8191 19.6512C27.81 19.6505 27.8 19.6493 27.7908 19.6483C27.6721 19.6354 27.5416 19.6665 27.3347 19.6962C27.2447 19.7088 27.1391 19.7214 27.0164 19.7264C26.9377 19.7294 26.8964 19.7136 26.863 19.7011C26.8535 19.6974 26.8437 19.694 26.8347 19.6913C26.8032 19.682 26.7701 19.694 26.7312 19.7079C26.6808 19.7259 26.618 19.7472 26.5378 19.7264C26.2836 19.6593 26.1711 19.6867 26.0818 19.7098C26.0559 19.7164 26.0327 19.7226 26.0085 19.7245C25.9313 19.7308 25.8251 19.7016 25.7478 19.6688C25.6853 19.6432 25.5546 19.6363 25.4519 19.6337C25.413 19.6326 25.3618 19.621 25.3025 19.6054C25.2406 19.5889 25.1678 19.5685 25.0828 19.5458C25.0341 19.5328 24.9831 19.5154 24.9353 19.494L24.9441 19.4989C24.8304 19.4563 24.7599 19.4253 24.7009 19.3993C24.6792 19.3897 24.6585 19.3801 24.6384 19.371C24.5744 19.3418 24.4963 19.3021 24.4197 19.2596C24.3278 19.2088 24.2359 19.154 24.1648 19.1151C24.0945 19.0596 24.0255 19.0019 23.9587 18.9442C23.9552 18.9417 23.9462 18.9337 23.9431 18.9315C23.8466 18.8397 23.7695 18.752 23.6931 18.6669C23.6247 18.5899 23.5818 18.495 23.574 18.4012C23.5667 18.3079 23.5942 18.2232 23.6521 18.1649C23.6983 18.119 23.7614 18.0915 23.8318 18.0858C23.8156 18.0183 23.814 17.9486 23.8377 17.8778C23.8655 17.7962 23.9254 17.7196 24.0046 17.6639C24.1335 17.5737 24.2648 17.4791 24.3972 17.3856C24.4035 17.38 24.4103 17.3736 24.4168 17.368C24.4653 17.3262 24.5053 17.2769 24.5447 17.2274C24.5537 17.2161 24.5629 17.2045 24.572 17.1932C24.6419 17.1073 24.8253 17.0192 24.9285 16.9716C24.9303 16.9707 24.9325 16.9695 24.9343 16.9686C24.9438 16.9642 24.9535 16.9596 24.9627 16.955C24.9806 16.9457 24.9993 16.9366 25.0193 16.9266C25.0981 16.8886 25.2119 16.8315 25.4431 16.7889C25.5076 16.7694 25.5721 16.7529 25.6345 16.7391C26.0163 16.6585 26.3393 16.641 26.6511 16.5887C26.9441 16.5394 27.2429 16.526 27.5378 16.5477ZM16.0935 16.3104C16.2001 16.3178 16.2854 16.3272 16.3601 16.3358C16.4235 16.3419 16.4786 16.3507 16.5291 16.3612C17.1557 16.4241 17.5547 16.9535 17.8386 17.1913C17.8878 17.232 17.961 17.273 18.0496 17.3251C18.139 17.3788 18.2535 17.4492 18.3494 17.5692C18.4833 17.7286 18.4481 17.9533 18.4021 18.0546C18.321 18.2448 18.2162 18.3559 18.1228 18.4657C18.0988 18.4929 18.0738 18.5188 18.0476 18.5429C17.9591 18.6336 17.8645 18.7013 17.7781 18.7548C17.6563 18.8294 17.5484 18.8783 17.4607 18.911C17.2477 18.9886 17.0207 19.0305 16.864 19.0721C16.8386 19.0787 16.8144 19.0845 16.7927 19.0907C16.7845 19.094 16.7764 19.0981 16.7683 19.1014C16.6383 19.1541 16.5039 19.2005 16.366 19.2382C16.3555 19.2373 16.3446 19.2363 16.3337 19.2352C16.198 19.2216 16.0412 19.2495 15.8044 19.2733C15.702 19.2838 15.5843 19.2933 15.45 19.3016C15.364 19.3069 15.3179 19.2944 15.281 19.2841C15.2702 19.281 15.2592 19.2783 15.2488 19.2762C15.2137 19.2692 15.1784 19.2846 15.1375 19.3026C15.0844 19.3261 15.0202 19.3545 14.9314 19.3475C14.9293 19.3474 14.9267 19.3468 14.9246 19.3466C14.6269 19.3269 14.5025 19.374 14.406 19.412C14.3775 19.4229 14.3514 19.4323 14.325 19.4384C14.238 19.4581 14.11 19.4488 14.0154 19.4296C13.9402 19.4149 13.7896 19.4297 13.6746 19.4452C13.6309 19.4511 13.5721 19.4484 13.5037 19.4442C13.4317 19.4398 13.3491 19.4332 13.2595 19.4325C13.0338 19.4302 12.9098 19.4181 12.8113 19.4081C12.7831 19.4051 12.757 19.4017 12.7302 19.3983C12.6468 19.3878 12.5421 19.3691 12.4324 19.3407C12.3191 19.3055 12.2309 19.3008 12.0525 19.1776C12.0399 19.1693 12.0263 19.1603 12.0134 19.1522C11.8848 19.0408 11.6508 18.8453 11.5447 18.579C11.5436 18.5771 11.5418 18.5706 11.5408 18.5682C11.5311 18.5422 11.5219 18.5136 11.5115 18.4813C11.425 18.4751 11.3543 18.4424 11.3113 18.3856C11.2633 18.3209 11.2533 18.2313 11.282 18.1337C11.3106 18.0361 11.3758 17.9388 11.4636 17.8612C11.6071 17.735 11.7537 17.607 11.9119 17.4823C11.9196 17.4749 11.9274 17.467 11.9353 17.4598C11.994 17.4063 12.0443 17.3472 12.0964 17.288C12.1084 17.2744 12.1202 17.2604 12.1326 17.247C12.2255 17.1431 12.47 17.0316 12.6082 16.9833C12.6106 16.9823 12.6135 16.9813 12.616 16.9804C12.6487 16.9684 12.6788 16.956 12.7146 16.9423C12.7766 16.9187 12.8552 16.89 12.989 16.8573C13.0334 16.8471 13.0842 16.8358 13.1443 16.8231C13.2052 16.8022 13.267 16.7812 13.3289 16.7606C13.9929 16.5276 14.77 16.3519 15.5085 16.3387C15.5178 16.3378 15.5275 16.3368 15.5369 16.3358C15.7213 16.3163 15.95 16.3003 16.0935 16.3104ZM1.12085 12.7518C1.10309 12.7639 1.05675 12.7963 1.01343 12.8583C0.975515 12.8945 0.930585 13.0661 0.924564 13.2098C0.924012 13.2184 0.923061 13.2274 0.922611 13.2362C0.916749 13.3531 0.921345 13.4732 0.933353 13.618C0.954034 13.8745 1.00516 14.2043 1.09644 14.8016C1.12595 15.0032 1.16644 15.2363 1.22144 15.5067C1.28998 15.8029 1.3674 16.0995 1.45093 16.3944C1.52788 16.6659 1.60987 16.9375 1.69702 17.2059C1.92804 17.9181 1.95007 18.6003 2.05738 19.2235C2.3729 19.0399 2.46474 18.9993 2.55152 18.8427C2.61751 18.7191 2.63181 18.6035 2.61499 18.4081C2.607 18.3119 2.58352 18.1985 2.55445 18.079C2.54004 18.0196 2.52346 17.9575 2.50757 17.8934C2.46652 17.7505 2.42058 17.5975 2.40406 17.4052C2.38401 17.2246 2.42755 16.9167 2.64038 16.7294C2.81519 16.5683 2.94376 16.4521 3.05738 16.3397C3.20206 16.1976 3.31444 16.0817 3.41089 15.9804C3.28544 15.6561 3.1932 15.3257 3.09742 15.0497C2.9522 14.6214 2.70297 14.2573 2.49683 13.7294C2.49386 13.7218 2.49097 13.7136 2.48804 13.7059C2.4745 13.6712 2.46096 13.6368 2.44702 13.6034C2.32566 13.3093 2.17128 13.1044 1.98706 12.9843C1.97979 12.9794 1.97205 12.9743 1.9646 12.9696C1.92961 12.9479 1.89265 12.9286 1.85425 12.911C1.69974 12.8371 1.43822 12.7631 1.12085 12.7518ZM25.3142 17.7977C25.2874 17.8025 25.2525 17.8077 25.2136 17.8046C25.1058 17.8579 24.9961 17.9111 24.8865 17.9647C24.7038 18.0539 24.5196 18.1442 24.3298 18.2323C24.2979 18.247 24.2633 18.2566 24.2293 18.2645C24.2832 18.3105 24.3355 18.3558 24.3855 18.3934C24.4575 18.4419 24.5299 18.4894 24.6023 18.535C24.8017 18.6606 25.0043 18.7768 25.2068 18.8807L25.2537 18.9042C25.3157 18.938 25.4754 18.9865 25.6111 19.0184C25.6265 19.0221 25.6429 19.0265 25.6589 19.0302C25.7178 19.0332 25.7772 19.0345 25.8328 19.036C25.8234 19.0264 25.8129 19.0154 25.8015 19.0048C25.7562 18.9853 25.708 18.9616 25.658 18.9315C25.643 18.9316 25.6272 18.935 25.6111 18.9413C25.5995 18.9458 25.5867 18.9524 25.574 18.9589C25.5567 18.9677 25.538 18.9769 25.5193 18.9804C25.5048 18.9828 25.4927 18.9782 25.49 18.9696C25.4888 18.9656 25.4893 18.9604 25.49 18.9559C25.4908 18.9508 25.4912 18.9464 25.489 18.9442C25.4872 18.9429 25.4829 18.9435 25.4783 18.9442C25.4708 18.9453 25.4608 18.9457 25.4539 18.9393C25.4274 18.915 25.3994 18.8823 25.3738 18.8466C25.3451 18.8068 25.3192 18.7636 25.2966 18.7294C25.2711 18.6912 25.2509 18.6243 25.241 18.5585C25.2338 18.5127 25.2307 18.4672 25.2273 18.4305C25.2263 18.42 25.2254 18.4089 25.2234 18.3983C25.22 18.3827 25.2131 18.3675 25.2068 18.3524C25.1961 18.3265 25.1864 18.3004 25.1941 18.2772C25.1957 18.2726 25.2077 18.2657 25.2224 18.2577C25.233 18.2519 25.2455 18.2443 25.2566 18.2372C25.2546 18.2097 25.2535 18.1812 25.2537 18.1532C25.2521 18.1523 25.2504 18.1511 25.2488 18.1503C25.2086 18.1287 25.1534 18.095 25.1863 18.0487C25.1947 18.0373 25.2106 18.0303 25.2244 18.0243C25.2378 18.0184 25.2504 18.0127 25.2537 18.0048C25.257 17.9956 25.2499 17.9835 25.2419 17.9706C25.2306 17.9525 25.2184 17.9304 25.2332 17.912C25.2341 17.9109 25.2351 17.9093 25.2361 17.9081C25.2469 17.8945 25.2634 17.8743 25.2937 17.8573C25.2991 17.8372 25.3077 17.8177 25.3142 17.7977ZM27.8572 17.3378C27.9224 17.4876 27.9402 17.5895 27.9539 17.7001C27.9619 17.7758 27.9644 17.8492 27.9646 17.9218C27.9646 17.9291 27.9647 17.937 27.9646 17.9442C27.9877 18.0037 28.008 18.0635 28.0154 18.1054C28.0215 18.1402 28.0108 18.1659 28.0017 18.1874C27.9955 18.2021 27.99 18.2163 27.991 18.2294C27.9915 18.2364 27.9934 18.2461 27.9949 18.2577C28.001 18.3056 28.0106 18.3877 27.989 18.4608C27.9794 18.4933 27.9608 18.5311 27.9431 18.5663C27.918 18.6167 27.8938 18.6632 27.8992 18.6874C27.9016 18.6979 27.903 18.7095 27.9031 18.7206C27.9021 18.7256 27.9025 18.7388 27.9011 18.743C27.8982 18.7802 27.8843 18.8202 27.8699 18.8583C27.8518 18.9066 27.8316 18.9527 27.8337 18.9872C27.8347 19.0046 27.8308 19.0199 27.824 19.036C27.8265 19.0351 27.8294 19.035 27.8318 19.0341C27.853 19.0257 27.8716 19.0171 27.8855 19.0077C27.9373 18.972 27.9892 18.9605 28.0642 18.9442C28.1164 18.9328 28.1806 18.9187 28.2634 18.8915C28.3589 18.86 28.4291 18.8444 28.488 18.8309C28.571 18.8119 28.6342 18.7962 28.7097 18.7401C28.7934 18.6778 28.8773 18.6179 28.9441 18.5829C28.9741 18.5673 29.0055 18.5443 29.033 18.5214C29.07 18.4907 29.0993 18.4586 29.1189 18.4423C29.1352 18.4288 29.1516 18.4288 29.1668 18.4257C29.1712 18.4247 29.1758 18.4234 29.1794 18.4218C29.1793 18.4156 29.178 18.4086 29.1726 18.3964C29.1716 18.3939 29.1707 18.391 29.1697 18.3886C29.1646 18.3829 29.1586 18.3762 29.1531 18.37C29.1249 18.3387 29.0914 18.2999 29.0642 18.2509C29.0212 18.173 29.0052 18.102 28.9861 18.0302C28.9713 17.9744 28.9541 17.9178 28.9216 17.8612C28.8996 17.8228 28.8693 17.7825 28.8377 17.746C28.7907 17.6915 28.7402 17.6442 28.7127 17.6054C28.7025 17.5908 28.699 17.5725 28.6951 17.5546C28.6948 17.5534 28.6943 17.5518 28.6941 17.5507C28.6123 17.4788 28.5199 17.4198 28.4197 17.372C28.4152 17.3702 28.4083 17.3674 28.4021 17.3651C28.3939 17.3639 28.3849 17.3626 28.3757 17.3612C28.3302 17.3543 28.2785 17.3489 28.2429 17.3554C28.2044 17.3619 28.1161 17.3481 28.0203 17.3407C27.9645 17.3362 27.9064 17.3341 27.8562 17.3358L27.8572 17.3378ZM27.0632 17.3241C27.0449 17.3356 27.0293 17.3494 27.0183 17.3661C27.0104 17.3782 27.0041 17.3928 26.9978 17.4071C26.9893 17.4266 26.9806 17.4466 26.9675 17.4637C26.9572 17.4772 26.9439 17.4842 26.9334 17.4813C26.9286 17.4799 26.9234 17.4766 26.9197 17.4735C26.9156 17.4702 26.9116 17.4671 26.908 17.4677C26.9052 17.4685 26.902 17.4722 26.8992 17.4764C26.8946 17.4834 26.8888 17.4924 26.8777 17.495C26.8669 17.4974 26.8551 17.4995 26.8435 17.5018C26.8011 17.5104 26.7557 17.5178 26.7117 17.5243C26.6455 17.5341 26.5807 17.5429 26.531 17.5536C26.475 17.5655 26.3932 17.5669 26.3142 17.5673C26.2589 17.5676 26.204 17.5675 26.1589 17.5712C26.1146 17.5749 26.0702 17.5882 26.0291 17.6014C26.0249 17.6028 26.0205 17.6031 26.0164 17.6044C26.0234 17.6142 26.0305 17.6236 26.0369 17.6327C26.0723 17.6844 26.0929 17.7194 26.0906 17.7401C26.0865 17.7739 26.0856 17.811 26.0867 17.8495C26.0876 17.8517 26.0888 17.8541 26.0896 17.8563C26.096 17.8734 26.1145 17.8932 26.1335 17.911C26.1377 17.915 26.1421 17.9189 26.1462 17.9227C26.1786 17.9522 26.1572 17.9911 26.1462 18.0175L26.1453 18.0194C26.1428 18.0253 26.1414 18.0312 26.1404 18.038C26.138 18.055 26.1343 18.0773 26.1111 18.1298C26.1124 18.1449 26.1139 18.1603 26.115 18.1757C26.1171 18.2052 26.1192 18.2357 26.1218 18.2665C26.0996 18.2282 26.0771 18.2904 26.2322 18.4081C26.2346 18.4092 26.2375 18.4108 26.24 18.412C26.289 18.4345 26.3638 18.4681 26.4099 18.5136C26.4254 18.5289 26.4402 18.5444 26.4539 18.5595C26.4614 18.5799 26.47 18.5986 26.4783 18.6151C26.571 18.7014 26.7246 18.7734 26.8835 18.8036C26.9337 18.8132 26.9861 18.8191 27.0378 18.8212C27.0854 18.823 27.1337 18.822 27.1814 18.8182C27.2091 18.809 27.235 18.7968 27.2585 18.786C27.2679 18.7817 27.2773 18.7773 27.2859 18.7733C27.2863 18.7634 27.2868 18.7517 27.2869 18.7391C27.2902 18.7378 27.2941 18.7358 27.2976 18.7343C27.3261 18.7221 27.3399 18.701 27.3474 18.6718C27.3489 18.6551 27.3507 18.6367 27.3513 18.6161C27.3523 18.584 27.3538 18.5466 27.3582 18.5028C27.361 18.4749 27.3782 18.4597 27.3923 18.4481C27.3963 18.4449 27.4001 18.4414 27.4031 18.4384C27.4138 18.4273 27.4026 18.4147 27.3894 18.4003C27.3724 18.3818 27.3523 18.3592 27.3709 18.3309C27.4322 18.2387 27.3905 18.1969 27.3591 18.1669C27.35 18.1581 27.3413 18.1496 27.3367 18.1415C27.322 18.1149 27.3363 18.0768 27.3552 18.0477C27.3705 18.024 27.3528 17.9784 27.3308 17.9452C27.3226 17.9329 27.3206 17.9154 27.3191 17.8954C27.3175 17.8743 27.3161 17.8497 27.3054 17.8251C27.2784 17.7631 27.2634 17.7329 27.2517 17.7089C27.2484 17.7022 27.2451 17.6953 27.2419 17.6893C27.2318 17.67 27.2221 17.6465 27.2117 17.6268C27.2028 17.6098 27.1914 17.5982 27.1834 17.5936C27.1773 17.5638 27.1802 17.5517 27.1677 17.5253C27.1606 17.5096 27.1672 17.4684 27.1843 17.4071C27.1937 17.3745 27.2064 17.3375 27.2224 17.2997C27.1693 17.3075 27.1156 17.314 27.0632 17.3241ZM13.74 18.8095C13.7363 18.8105 13.7321 18.8104 13.7283 18.8114C13.7466 18.8124 13.7653 18.8135 13.7839 18.8143C13.8013 18.8126 13.8184 18.8093 13.8357 18.8075C13.8333 18.8052 13.8303 18.803 13.8279 18.8007C13.8134 18.7974 13.7971 18.7969 13.78 18.7997C13.7678 18.8017 13.7538 18.8056 13.74 18.8095ZM13.407 17.6395C13.4054 17.6417 13.4038 17.6441 13.4021 17.6464C13.3734 17.685 13.3376 17.734 13.2791 17.7606C13.2577 17.7707 13.2332 17.7772 13.2039 17.7772C13.1791 17.7772 13.1598 17.7669 13.1423 17.7587C13.1254 17.7506 13.1094 17.7442 13.0925 17.7479C13.0732 17.7524 13.0547 17.7683 13.0349 17.786C13.0069 17.8111 12.9764 17.8392 12.9353 17.8436C12.9326 17.8439 12.9295 17.8443 12.9265 17.8446C12.8967 17.848 12.8523 17.8538 12.8015 17.8485C12.6844 17.8993 12.5678 17.9569 12.4509 18.0214C12.339 18.0831 12.2258 18.1509 12.1121 18.2216C12.1138 18.2235 12.1165 18.2276 12.1189 18.2333C12.126 18.2497 12.1382 18.2763 12.1531 18.3055C12.2104 18.4043 12.308 18.4701 12.49 18.6024C12.4983 18.6087 12.5068 18.6163 12.5154 18.6229C12.4947 18.6066 12.6682 18.6736 12.7761 18.6923C12.8969 18.7187 13.0255 18.7397 13.1541 18.7577C13.3195 18.7808 13.4881 18.7952 13.658 18.8055L13.657 18.8046C13.657 18.8007 13.6593 18.7958 13.6609 18.7919C13.6627 18.7873 13.6636 18.7824 13.6619 18.7802C13.6602 18.779 13.6563 18.7792 13.6521 18.7792C13.6447 18.7791 13.635 18.7785 13.6296 18.7714C13.6094 18.7444 13.5893 18.709 13.571 18.6727C13.5508 18.6326 13.5326 18.5906 13.5154 18.5575C13.496 18.5204 13.4842 18.4582 13.4793 18.3964C13.4756 18.3533 13.4747 18.3103 13.4724 18.2743C13.4706 18.2464 13.4635 18.2174 13.4568 18.1893C13.4554 18.1853 13.4544 18.1806 13.4529 18.1766C13.4437 18.1523 13.4347 18.1285 13.4431 18.1073C13.4453 18.1029 13.4575 18.0961 13.4724 18.0887C13.483 18.0835 13.4955 18.0778 13.5066 18.0712C13.505 18.0448 13.5041 18.0177 13.5037 17.9911C13.5019 17.9902 13.4996 17.989 13.4978 17.9882C13.457 17.9681 13.4015 17.9393 13.4324 17.8944C13.4403 17.8833 13.4561 17.8756 13.4695 17.869C13.4826 17.8625 13.4945 17.8565 13.4968 17.8485C13.4991 17.8394 13.4902 17.8288 13.4812 17.8173C13.4684 17.8007 13.4545 17.781 13.4675 17.7616C13.4684 17.7604 13.4696 17.759 13.4705 17.7577C13.4798 17.7438 13.4942 17.7229 13.5222 17.703C13.5271 17.6677 13.5354 17.6324 13.5427 17.5956C13.4977 17.6103 13.4523 17.6253 13.407 17.6395ZM27.2859 18.7831C27.2797 18.792 27.277 18.8005 27.282 18.8036C27.283 18.8047 27.2845 18.8047 27.2859 18.8046C27.2851 18.8009 27.2855 18.7932 27.2859 18.7831ZM27.3005 18.7665C27.3049 18.7645 27.31 18.7633 27.3142 18.7616C27.318 18.758 27.3209 18.7546 27.322 18.7528C27.3266 18.7436 27.3136 18.7532 27.3005 18.7665ZM16.571 16.9901C16.5826 17.0477 16.592 17.1056 16.5945 17.1639C16.5986 17.2619 16.5914 17.3605 16.575 17.455C16.5733 17.4644 16.5709 17.4739 16.5691 17.4833C16.577 17.5654 16.5764 17.6492 16.5671 17.7059C16.5653 17.7173 16.5606 17.7277 16.5574 17.7372C16.5508 17.7522 16.5419 17.7653 16.533 17.7762C16.5237 17.7876 16.5156 17.7983 16.5134 17.8104C16.5124 17.8171 16.5106 17.8274 16.5095 17.8387C16.5052 17.8853 16.4991 17.9683 16.4636 18.0448C16.4478 18.0786 16.4216 18.1183 16.3962 18.1561C16.3603 18.2101 16.3248 18.262 16.323 18.2929C16.3204 18.3471 16.2916 18.4058 16.2625 18.4569C16.2349 18.5055 16.2066 18.5475 16.2048 18.58C16.2033 18.6152 16.1845 18.6382 16.156 18.6679C16.1856 18.6638 16.2148 18.6596 16.2429 18.6552C16.3509 18.6383 16.4453 18.6163 16.4929 18.5858C16.5176 18.5701 16.5409 18.5594 16.5671 18.5497C16.608 18.5347 16.6528 18.5241 16.7068 18.5126C16.7722 18.4986 16.8521 18.4827 16.9548 18.4569C17.0736 18.4272 17.1571 18.4161 17.2263 18.4052C17.323 18.3897 17.3963 18.3766 17.4812 18.3202C17.5757 18.2573 17.6513 18.1928 17.7058 18.1503C17.7171 18.1416 17.7277 18.1312 17.738 18.12C17.7569 18.0993 17.7759 18.0781 17.7937 18.0565C17.8364 18.0048 17.8749 17.9516 17.906 17.913C17.9317 17.8813 17.9549 17.8642 17.9714 17.8544C17.9727 17.8536 17.9741 17.8531 17.9753 17.8524L17.9724 17.8514C17.9451 17.8435 17.9107 17.8381 17.866 17.8192C17.7948 17.789 17.7183 17.7415 17.6296 17.6766C17.5991 17.6542 17.5668 17.6288 17.533 17.6005C17.4947 17.568 17.4558 17.5342 17.4148 17.5009C17.3648 17.4603 17.3082 17.4174 17.2546 17.3768C17.1748 17.3161 17.1001 17.2618 17.0564 17.2186C17.0401 17.2024 17.0304 17.1816 17.0212 17.162C17.0207 17.1609 17.0198 17.1592 17.0193 17.1581C16.898 17.0747 16.7761 17.018 16.6502 16.9911C16.6387 16.9905 16.6263 16.9894 16.615 16.9891C16.6002 16.9888 16.5853 16.9895 16.571 16.9901ZM15.6707 17.0731C15.65 17.0787 15.6277 17.0843 15.6052 17.0887C15.5846 17.0927 15.5353 17.0911 15.4753 17.0897C15.4379 17.0889 15.3934 17.0889 15.3494 17.0897C15.2322 17.1094 15.1163 17.1314 15.0017 17.1561C14.9789 17.1691 14.96 17.1843 14.946 17.202C14.9361 17.2147 14.9285 17.2293 14.9207 17.244C14.9099 17.2642 14.8983 17.2854 14.8816 17.3036C14.8686 17.3177 14.8506 17.3263 14.8377 17.3241C14.8319 17.323 14.8265 17.3192 14.822 17.3163C14.8169 17.313 14.8121 17.3106 14.8074 17.3114C14.8039 17.3122 14.8004 17.3156 14.7966 17.3202C14.7907 17.3275 14.7825 17.3374 14.7683 17.3407C14.7153 17.3528 14.654 17.3641 14.5945 17.3759C14.5284 17.3889 14.4636 17.4028 14.4128 17.4188C14.3564 17.4366 14.2712 17.4489 14.1853 17.4628C14.1647 17.4661 14.1441 17.4709 14.1238 17.4745C14.1211 17.4874 14.1189 17.4998 14.1169 17.5116C14.1001 17.5727 14.1619 17.6143 14.2302 17.5682C14.2335 17.566 14.237 17.5637 14.24 17.5614C14.3173 17.4883 14.295 17.5208 14.3074 17.5575C14.3087 17.5597 14.3101 17.563 14.3113 17.5653C14.3202 17.5826 14.3411 17.6019 14.3621 17.621C14.3668 17.6253 14.3711 17.6304 14.3757 17.6346C14.4117 17.6676 14.3946 17.7356 14.3865 17.7772V17.7792C14.3845 17.7887 14.3839 17.7987 14.3835 17.8095C14.3827 17.8357 14.3807 17.8707 14.3601 17.9491C14.3621 17.9716 14.3646 17.9954 14.366 18.0184C14.3681 18.0526 14.3694 18.088 14.3709 18.1229C14.3628 18.1658 14.3772 18.2536 14.5408 18.4706C14.5421 18.4669 14.5586 18.4736 14.574 18.494C14.5929 18.5208 14.6172 18.5447 14.6375 18.5634C14.7708 18.6219 14.9673 18.6395 15.1521 18.6161C15.2105 18.6088 15.2689 18.5974 15.3259 18.5819C15.3784 18.5676 15.4304 18.5503 15.4802 18.5302C15.5024 18.5147 15.5235 18.4981 15.5418 18.4823C15.5435 18.4802 15.545 18.4776 15.5466 18.4755C15.5623 18.4546 15.5711 18.4354 15.5798 18.4247C15.6002 18.3999 15.6349 18.3826 15.6648 18.3554C15.6695 18.3512 15.6744 18.3468 15.6785 18.3427C15.6898 18.3127 15.6996 18.278 15.7078 18.2401C15.7115 18.2389 15.7155 18.2375 15.7195 18.2362C15.7713 18.2191 15.7866 18.1751 15.8044 18.1005C15.8122 18.068 15.8207 18.029 15.8337 17.9823C15.8423 17.9521 15.8624 17.9381 15.8787 17.9276C15.8832 17.9247 15.8878 17.9218 15.8914 17.9188C15.9039 17.9082 15.8954 17.8926 15.8855 17.8739C15.8726 17.8495 15.8579 17.8192 15.8835 17.7889C15.965 17.6924 15.9375 17.6337 15.9177 17.5868C15.9133 17.5763 15.9092 17.5659 15.907 17.5565C15.9083 17.5474 15.9084 17.5448 15.908 17.5429C15.9015 17.5142 15.9244 17.4837 15.95 17.4608C15.9703 17.4426 15.9631 17.3947 15.947 17.3602C15.9413 17.3473 15.9427 17.3312 15.9441 17.3124C15.9455 17.2927 15.9463 17.2691 15.9382 17.245C15.9172 17.1841 15.9032 17.1544 15.8923 17.1307C15.8893 17.1244 15.8865 17.118 15.8835 17.1122C15.8773 17.0999 15.8707 17.0858 15.864 17.0712C15.8627 17.0709 15.8614 17.0705 15.8601 17.0702L15.8855 17.1356C15.885 17.1442 15.889 17.1573 15.8923 17.1679C15.8764 17.1536 15.8437 17.1315 15.8074 17.1151C15.7885 17.106 15.7727 17.0861 15.7585 17.0585C15.7511 17.0586 15.7436 17.0575 15.7361 17.0585C15.7157 17.0611 15.6945 17.0668 15.6707 17.0731ZM12.0515 18.2596C12.0567 18.2685 12.0647 18.2706 12.0798 18.2577C12.0897 18.2466 12.0949 18.2361 12.0994 18.2294C12.0834 18.2393 12.0675 18.2496 12.0515 18.2596ZM16.5554 17.7479C16.5565 17.7449 16.5563 17.7404 16.5574 17.7372L16.5593 17.7362L16.5554 17.7479ZM27.1834 17.5936C27.1846 17.5996 27.1861 17.6064 27.1882 17.6141L27.1775 17.5907C27.1796 17.59 27.1808 17.5921 27.1834 17.5936Z" fill="black"/>
</svg>
